<svg xmlns="http://www.w3.org/2000/svg" width="42" height="42" viewBox="0 0 42 42" fill="none">
  <g clip-path="url(#clip0_23_188)">
  <path fill-rule="evenodd" clip-rule="evenodd" d="M0.118328 5.55366L23.0975 2.02722L29.5115 37.0494L6.24123 40.4792L0.118328 5.55366Z" fill="url(#paint0_linear_23_188)" stroke="black" stroke-width="0.721662"/>
  <path fill-rule="evenodd" clip-rule="evenodd" d="M6.90759 7.72368L33.1039 1.34546L41.836 34.5895L14.7665 41.6442L6.90759 7.72368Z" fill="url(#paint1_linear_23_188)" stroke="black"/>
  <path fill-rule="evenodd" clip-rule="evenodd" d="M4.89001 2.58856L32.8638 0.164117L35.8006 36.149L8.11791 37.897L4.89001 2.58856Z" fill="url(#paint2_linear_23_188)" stroke="black" stroke-width="1.00418"/>
  <path d="M9.53735 12.609L8.90515 6.04266L10.6524 5.87577L10.7267 6.64807L9.91626 6.72549L10.3998 11.7472L11.2102 11.6698L11.2846 12.4421L9.53735 12.609ZM11.9371 12.3797L11.3049 5.81344L13.0521 5.64655L13.1265 6.41885L12.316 6.49626L12.7995 11.518L13.61 11.4405L13.6843 12.2129L11.9371 12.3797ZM13.7117 5.58354L15.6098 5.40224C16.0378 5.36136 16.3673 5.36281 16.5981 5.40659C16.9083 5.4663 17.1819 5.59887 17.4189 5.80429C17.6558 6.00973 17.8462 6.27132 17.9901 6.58908C18.1338 6.90452 18.2287 7.3022 18.275 7.78212C18.3155 8.2038 18.2979 8.57227 18.222 8.88751C18.1293 9.27255 17.9747 9.59179 17.7584 9.84522C17.5951 10.0371 17.3649 10.1967 17.068 10.3238C16.8457 10.4179 16.5428 10.4833 16.1592 10.5199L14.205 10.7066L13.7117 5.58354ZM14.8337 6.351L15.1604 9.74423L15.9357 9.67017C16.2258 9.64247 16.4335 9.60617 16.559 9.56126C16.7234 9.50324 16.8557 9.41889 16.956 9.30821C17.0586 9.19731 17.1341 9.02435 17.1822 8.78933C17.2302 8.55199 17.2351 8.23529 17.197 7.83924C17.1589 7.44319 17.0945 7.14251 17.0039 6.93721C16.9133 6.73191 16.7992 6.57589 16.6614 6.46913C16.5237 6.36238 16.3557 6.29731 16.1576 6.27392C16.0094 6.25516 15.7236 6.26599 15.3003 6.30643L14.8337 6.351ZM20.1307 10.1406L18.4095 5.13481L19.4726 5.03327L20.5868 8.47824L21.1882 4.86939L22.4232 4.75143L23.6694 8.24374L24.1143 4.5899L25.1598 4.49003L24.404 9.73238L23.3024 9.83761L21.9092 6.10541L21.257 10.033L20.1307 10.1406ZM27.0719 4.30739L27.7041 10.8737L25.9569 11.0406L25.8826 10.2683L26.693 10.1909L26.2088 5.16218L25.3984 5.23959L25.3247 4.47428L27.0719 4.30739ZM29.4717 4.07816L30.1039 10.6445L28.3567 10.8114L28.2823 10.0391L29.0928 9.96164L28.6086 4.93295L27.7982 5.01036L27.7245 4.24505L29.4717 4.07816Z" fill="#6184A3"/>
  <path fill-rule="evenodd" clip-rule="evenodd" d="M5.44933 14.1013C3.4657 14.9074 2.11322 15.5455 1.22188 16.1767C0.330535 16.8078 0.174385 17.68 0.156753 18.2244C0.147927 18.4966 0.183299 18.8054 0.36408 19.0219C0.544875 19.2383 0.957187 19.6344 1.26897 19.8015C1.89252 20.1357 3.74342 20.5953 4.72028 20.8058C8.62771 21.6477 13.5153 21.3552 13.5153 21.3552C14.0708 21.7621 14.4448 22.2782 14.5879 22.7503C16.0895 22.1337 18.4631 20.5985 18.9046 19.9473C17.116 18.5749 15.3621 17.8775 13.4866 17.232C12.962 16.997 12.5418 16.8312 13.2511 18.0675C13.5743 18.8756 13.5325 19.7183 13.4387 20.4918C13.4387 20.4918 8.01595 20.6247 4.17357 19.7968C3.21298 19.5898 2.38007 19.4846 1.80508 19.1764C1.51758 19.0223 1.31851 18.9082 1.1765 18.7382C1.03449 18.5681 1.10445 18.3164 1.11046 18.1308C1.12247 17.7595 1.19359 17.5848 2.04942 16.9788C2.90525 16.3728 3.90454 15.8801 5.87489 15.0794C5.84612 14.6574 5.77966 14.2604 5.44933 14.1013Z" fill="url(#paint3_linear_23_188)"/>
  <path fill-rule="evenodd" clip-rule="evenodd" d="M36.5763 20.3583C36.1052 20.3126 35.7296 20.4573 35.736 20.8492C36.0457 21.1291 36.1788 21.645 36.2235 21.8754C36.2682 22.1058 36.2353 22.2738 36.0641 22.4931C35.7219 22.9316 35.0388 23.0057 33.9313 23.3822C31.7162 24.1351 28.3886 24.2076 24.7749 24.6392C17.5476 25.5025 11.9685 25.8683 11.9685 25.8683C12.6193 24.3495 14.0449 24.4265 14.0517 23.1854C14.1415 22.892 13.0195 22.7552 12.3785 23.1503C10.9785 24.3599 9.88774 25.3574 8.86975 26.586L9.48919 27.594C9.48919 27.594 18.0625 26.6496 25.303 25.7848C28.9233 25.3524 32.1788 25.1317 34.4275 24.3674C35.5518 23.9852 36.3829 23.8803 36.9345 23.2171C37.1417 22.9679 37.3782 22.2214 37.2849 21.6701C37.2129 21.2446 36.9076 20.6578 36.5763 20.3583Z" fill="url(#paint4_linear_23_188)"/>
  <path fill-rule="evenodd" clip-rule="evenodd" d="M31.5684 20.2247C29.3209 21.2842 29.2214 23.0382 29.613 24.4074C30.0046 25.7766 31.3398 27.2692 32.6713 28.4618C35.3344 30.847 36.6284 31.5114 36.6284 31.5114C35.4095 31.4776 34.0368 31.05 33.9599 31.6725C33.6488 32.645 37.7303 32.8081 39.6813 32.5556C39.2238 30.0789 38.4367 28.2367 37.1446 27.6852C36.5918 27.6368 37.2471 29.2291 37.3972 30.7558C37.3972 30.7558 36.2079 30.1901 33.5895 27.8448C32.2802 26.6721 31.1701 25.4453 30.8094 24.1842C30.4487 22.9231 30.8349 22.184 32.4338 21.0692C32.7383 20.7439 32.0106 20.2655 31.5684 20.2247Z" fill="url(#paint5_linear_23_188)"/>
  <path d="M18.3142 24.8779L19.032 20.1625L24.0256 22.152L31.0778 31.9393L24.3826 34.9519L18.3142 24.8779Z" fill="url(#paint6_linear_23_188)"/>
  <path fill-rule="evenodd" clip-rule="evenodd" d="M24.4145 19.96L19.1884 20.0653L20.2016 15.1118L24.4145 19.96Z" fill="url(#paint7_radial_23_188)" stroke="black" stroke-linejoin="round"/>
  <path fill-rule="evenodd" clip-rule="evenodd" d="M20.8192 19.8828L19.3716 19.9084L19.6519 18.6068L20.8192 19.8828V19.8828Z" fill="#812310"/>
  <path fill-rule="evenodd" clip-rule="evenodd" d="M36.5161 0.26825L36.5483 3.18162L39.1922 6.03248L41.7379 6.29367L24.4119 19.9675L22.225 18.8868L20.5574 17.0508L20.1998 15.1187L36.5161 0.26825H36.5161Z" fill="url(#paint8_linear_23_188)" stroke="black" stroke-linejoin="round"/>
  <path fill-rule="evenodd" clip-rule="evenodd" d="M36.3539 3.22723L39.0912 6.112L22.3249 18.7537L20.7107 16.9747L36.3539 3.22723Z" fill="url(#paint9_linear_23_188)"/>
  <path fill-rule="evenodd" clip-rule="evenodd" d="M41.7316 6.30043L39.0535 6.01735L36.5101 3.18113L36.5145 0.193176L39.2581 0.438963L41.6167 3.56872L41.7316 6.30043H41.7316Z" fill="#FFE965" stroke="black" stroke-linejoin="round"/>
  <path fill-rule="evenodd" clip-rule="evenodd" d="M40.2167 3.27146L40.2706 4.59715L39.0195 4.36291L38.0762 3.32073L37.984 2.16582L39.2487 2.11145L40.2167 3.27146Z" fill="#CB391C"/>
  <path d="M8.44507 32.1493L8.77314 26.82L14.4453 29.5783L22.994 42L13.3868 41.6295L8.44507 32.1493Z" fill="url(#paint10_linear_23_188)"/>
  <path d="M14.0295 26.1428L11.3896 31.2977L9.07458 26.8619L14.0295 26.1428Z" fill="url(#paint11_linear_23_188)" stroke="black" stroke-linejoin="round"/>
  <path d="M14.0779 26.1773L34.4587 34.321L31.8709 35.3714L30.4432 38.4139L30.8276 41.6702L11.3663 31.3015L11.2042 28.8949L12.22 26.9902L14.0779 26.1773Z" fill="url(#paint12_linear_23_188)" stroke="black" stroke-linejoin="round"/>
  <path d="M31.869 35.3216L34.4689 34.3256L34.7489 37.6722L33.469 40.3814L30.829 41.6164L30.389 38.469L31.869 35.3216Z" fill="url(#paint13_radial_23_188)" stroke="black" stroke-linejoin="round"/>
  <path d="M12.3392 27.1143L31.7402 35.2178L30.2336 38.4094L11.371 28.9289L12.3392 27.1143Z" fill="url(#paint14_linear_23_188)"/>
  <path d="M31.7852 38.1567L32.469 36.8146L33.4416 36.4649L33.6695 37.5669L33.0895 38.8274L32.0543 39.2795L31.7852 38.1567Z" fill="#00B527"/>
  <path d="M9.3252 26.9779L10.4898 26.8232L9.8261 27.9799L9.3252 26.9779Z" fill="#258209"/>
  </g>
  <defs>
  <linearGradient id="paint0_linear_23_188" x1="13.6781" y1="38.9999" x2="7.41767" y2="4.24754" gradientUnits="userSpaceOnUse">
  <stop stop-color="#FBF6F0"/>
  <stop offset="1" stop-color="#E9DAC7"/>
  </linearGradient>
  <linearGradient id="paint1_linear_23_188" x1="42.0001" y1="33.9334" x2="9.19344" y2="4.40379" gradientUnits="userSpaceOnUse">
  <stop stop-color="#FBFAF9"/>
  <stop offset="1" stop-color="#E9DAC7"/>
  </linearGradient>
  <linearGradient id="paint2_linear_23_188" x1="6.2015" y1="3.53297" x2="34.4714" y2="35.2204" gradientUnits="userSpaceOnUse">
  <stop stop-color="#EDE1AE"/>
  <stop offset="1" stop-color="#FEFDFA"/>
  </linearGradient>
  <linearGradient id="paint3_linear_23_188" x1="14.5253" y1="20.7842" x2="15.7118" y2="16.9593" gradientUnits="userSpaceOnUse">
  <stop stop-color="#E32525" stop-opacity="0.816327"/>
  <stop offset="1" stop-color="#E32525" stop-opacity="0.571429"/>
  </linearGradient>
  <linearGradient id="paint4_linear_23_188" x1="29.6848" y1="24.8596" x2="30.6687" y2="17.8648" gradientUnits="userSpaceOnUse">
  <stop stop-color="#25901B" stop-opacity="0.836735"/>
  <stop offset="1" stop-color="#25901B" stop-opacity="0.377551"/>
  </linearGradient>
  <linearGradient id="paint5_linear_23_188" x1="38.5753" y1="30.4291" x2="32.0404" y2="19.4178" gradientUnits="userSpaceOnUse">
  <stop stop-color="#3A9030" stop-opacity="0.836735"/>
  <stop offset="1" stop-color="#3D9C32" stop-opacity="0.795918"/>
  </linearGradient>
  <linearGradient id="paint6_linear_23_188" x1="18.3142" y1="20.1373" x2="28.3734" y2="34.989" gradientUnits="userSpaceOnUse">
  <stop stop-opacity="0.173469"/>
  <stop offset="1" stop-color="#C7CEC2" stop-opacity="0"/>
  </linearGradient>
  <radialGradient id="paint7_radial_23_188" cx="0" cy="0" r="1" gradientUnits="userSpaceOnUse" gradientTransform="translate(21.7424 17.7608) scale(2.84839 2.79223)">
  <stop stop-color="#D69C00"/>
  <stop offset="1" stop-color="#FFE658"/>
  </radialGradient>
  <linearGradient id="paint8_linear_23_188" x1="20.0358" y1="9.98788" x2="42.0233" y2="9.98788" gradientUnits="userSpaceOnUse">
  <stop stop-color="#8F2A15"/>
  <stop offset="1" stop-color="#C8381B"/>
  </linearGradient>
  <linearGradient id="paint9_linear_23_188" x1="20.1834" y1="11.2027" x2="39.2834" y2="11.2027" gradientUnits="userSpaceOnUse">
  <stop stop-color="#CE411E"/>
  <stop offset="1" stop-color="#ECAD8D"/>
  </linearGradient>
  <linearGradient id="paint10_linear_23_188" x1="8.58276" y1="27.1491" x2="21.7515" y2="48.7649" gradientUnits="userSpaceOnUse">
  <stop stop-opacity="0.173469"/>
  <stop offset="1" stop-color="#C7CEC2" stop-opacity="0"/>
  </linearGradient>
  <linearGradient id="paint11_linear_23_188" x1="8.50563" y1="28.728" x2="14.1936" y2="28.728" gradientUnits="userSpaceOnUse">
  <stop stop-color="#D69C00"/>
  <stop offset="1" stop-color="#FFE658"/>
  </linearGradient>
  <linearGradient id="paint12_linear_23_188" x1="11.1202" y1="33.9238" x2="34.6227" y2="33.9238" gradientUnits="userSpaceOnUse">
  <stop stop-color="#00A423"/>
  <stop offset="1" stop-color="#00B427"/>
  </linearGradient>
  <radialGradient id="paint13_radial_23_188" cx="0" cy="0" r="1" gradientUnits="userSpaceOnUse" gradientTransform="translate(32.569 37.9711) scale(2.34399 3.80882)">
  <stop stop-color="#D69C00"/>
  <stop offset="1" stop-color="#FFE658"/>
  </radialGradient>
  <linearGradient id="paint14_linear_23_188" x1="11.0255" y1="32.8316" x2="31.993" y2="32.8316" gradientUnits="userSpaceOnUse">
  <stop stop-color="#00B62B"/>
  <stop offset="1" stop-color="#A1D784"/>
  </linearGradient>
  <clipPath id="clip0_23_188">
  <rect width="42" height="42" rx="8" fill="white"/>
  </clipPath>
  </defs>
</svg>