<svg xmlns="http://www.w3.org/2000/svg" width="400" height="232.536" viewBox="0 0 400 NaN" fill-rule="evenodd" xmlns:v="https://vecta.io/nano"><path d="M24.858 1.01c-2.383 2.742-1.139 7.063 2.824 9.809 3.243 2.248 2.215 5.284-2.915 8.609-3.704 2.4-4.745 4.177-3.446 5.88 3.262 4.276-.324 10.223-6.686 11.087-5.156.701-7.942 6.948-3.783 8.484 1.268.469 1.323.769.195 1.051-.512.128-1.189.416-1.506.64s-.677.407-.801.407c-.239 0-1.897 1.076-2.419 1.57-.169.159-.4.29-.512.29-.6 0-4.378 4.287-4.868 5.523-.165.416-.444.756-.62.756-.264 0-.321 1.046-.321 5.931 0 4.61.065 5.93.293 5.93.274 0 1.567 2.504 1.567 3.036 0 .134.2.631.444 1.104.612 1.187 1.89 4.747 2.395 6.674a23.48 23.48 0 0 0 .542 1.744c.165.448.471 1.494.68 2.325l.849 3.373.712 3.023a22.67 22.67 0 0 0 .683 2.404c.242.683.44 1.543.44 1.911s.163 1.151.363 1.74.508 1.822.684 2.741a57.89 57.89 0 0 0 .94 3.878l.931 3.489c.686 2.825 2.427 8.035 3.389 10.141.24.526.437 1.128.437 1.338s.209.773.465 1.251.465 1.005.465 1.174.202.693.449 1.166.728 1.54 1.07 2.371l1.077 2.559.754 1.744c.164.384.721 1.587 1.237 2.674 2.398 5.049 3.436 7.117 3.715 7.401.166.169.303.496.303.727s.153.547.34.702.41.508.497.784c.208.664 4.796 8.745 5.913 10.415.481.72.945 1.531 1.031 1.803s.258.494.381.494.293.183.376.407.326.668.54.988l4.899 7.209c.51.704 1.171 1.646 1.469 2.093s1.285 1.756 2.192 2.907l2.064 2.642c.228.302.682.877 1.01 1.279a29.62 29.62 0 0 1 1.16 1.545c.31.447.737 1.023.95 1.279 3.99 4.792 6.498 7.436 9.629 10.147l2.687 2.345c.833.731 1.98 1.659 2.549 2.062s1.138.858 1.266 1.013.406.377.618.496.787.559 1.279.978c2.091 1.782 5.912 4.689 7.638 5.811l2.093 1.398c.128.103.84.55 1.583.992l2.125 1.269c2.704 1.625 5.392 3.113 7.959 4.407 1.002.505 1.856 1.002 1.899 1.104s.193.187.334.187.733.221 1.317.491l4.499 2.034c.611.274 1.275.498 1.475.498s.643.159.983.352c.759.433 3.078 1.236 4.359 1.51.523.112 1.308.352 1.744.533 1.951.812 5.458 1.847 8.002 2.361.768.155 1.605.392 1.861.527s.936.318 1.511.408 1.646.313 2.379.497a32.24 32.24 0 0 0 3.098.558c.971.123 2.233.382 2.804.576s1.479.352 2.018.351 2.393.206 4.12.46c4.864.715 9.079 1.165 13.09 1.398 2.019.117 4.635.33 5.814.473 9.261 1.124 28.959.755 38.305-.717l3.256-.465a154.63 154.63 0 0 0 3.837-.565c1.151-.186 3.483-.39 5.182-.453 2.037-.076 3.344-.234 3.838-.463.411-.191 1.255-.459 1.876-.595s1.406-.386 1.744-.556.982-.377 1.43-.46 1.128-.299 1.512-.48c3.617-1.712 10.894-2.244 12.765-.933.749.525 1.326.404 2.821-.589.765-.508 1.522-.927 1.682-.931s.682-.215 1.159-.471 1.098-.465 1.38-.465.803-.111 1.159-.247 1.698-.4 2.98-.587c9.146-1.339 11.345-2.837 10.654-7.258-.458-2.932-1.81-3.405-9.144-3.2-7.094.198-10.39-.307-11.268-1.727-.294-.476-1.395-.227-2.08.471-1.925 1.962-5.252 2.576-8.504 1.571l-2.907-.913c-1.497-.476-2.032-.514-6.662-.473-6.363.056-7.356-.348-5.78-2.352.256-.325.466-.686.466-.802s.323-.518.719-.893c1.276-1.211 3.844-4.838 4.193-5.922 1.376-4.279-4.817-4.373-9.993-.151-3.493 2.849-3.846 3.33-2.536 3.456.577.056.756.184.756.538 0 .644-.848.721-1.386.127-.608-.672-.833-.596-1.753.593-2.809 3.628-4.591 4.689-6.657 3.964-.496-.174-1.53-.389-2.297-.478s-1.866-.306-2.442-.482-1.517-.391-2.093-.479-1.256-.272-1.511-.409-1.303-.446-2.326-.685c-3.856-.9-4.437-1.062-5.116-1.426-.384-.205-.907-.377-1.163-.382s-.884-.212-1.395-.459-1.088-.456-1.28-.465-.767-.218-1.279-.465-1.064-.453-1.228-.457c-.289-.008-2.479-.864-3.888-1.52-2.213-1.03-3.38-1.512-3.66-1.512-.174 0-.416-.092-.538-.205s-1.372-.805-2.779-1.538-2.672-1.425-2.811-1.537-.872-.53-1.628-.93-1.532-.855-1.723-1.013a2.83 2.83 0 0 0-.698-.411c-.192-.067-1.041-.58-1.887-1.14l-2.559-1.649c-5.999-3.724-14.496-11.211-18.942-16.693l-1.768-2.132-.893-1.046-5.108-6.124c-2.052-2.417-7.215-9.482-7.215-9.875 0-.061-.396-.716-.879-1.455-1.171-1.793-1.4-2.171-1.73-2.856-.154-.32-.467-.831-.696-1.136s-.416-.737-.416-.96-.154-.533-.343-.69-.409-.641-.491-1.077-.33-1.027-.552-1.314-.476-.835-.563-1.219-.3-1.011-.47-1.395c-.332-.747-.899-2.373-1.421-4.07-.505-1.643-1.056-3.299-1.393-4.186-.625-1.646-1.094-3.168-1.325-4.302-.131-.64-.38-1.581-.553-2.093a12.97 12.97 0 0 1-.461-1.977c-.08-.575-.345-1.649-.589-2.385s-.444-1.677-.443-2.093-.208-1.853-.461-3.196c-.76-4.023-1.154-6.512-1.384-8.721l-.581-5.582c-.617-5.921-1.086-11.892-1.308-16.628-.116-2.494-.321-5.581-.454-6.86-1.363-13.045-.741-16.762 2.944-17.586 1.695-.38 6.519.542 8.716 1.665 2.066 1.055 7.378 2.198 9.23 1.985 2.742-.314 3.21-.847 2.398-2.731-1.168-2.707-5.077-5.665-10.512-7.953l-1.986-.872c-.526-.241-1.103-.438-1.283-.438s-.717-.21-1.194-.465-1.053-.465-1.28-.465-.776-.194-1.221-.43a7.84 7.84 0 0 0-1.508-.595c-.384-.091-1.119-.367-1.634-.612s-1.928-.698-3.14-1.005c-2.051-.518-4.455-1.568-5.812-2.538-2.09-1.493-3.018-2.088-3.866-2.478-.529-.244-1.032-.557-1.118-.695s-.388-.252-.672-.252-.735-.154-1.003-.341-.945-.412-1.505-.497c-1.523-.233-1.678-.381-2.153-2.052-.768-2.703-4.217-4.294-10.575-4.879-2.299-.212-5.853-1.548-7.243-2.724-.626-.53-.799-2.853-.285-3.84.314-.605-.429-2.259-1.26-2.802-.586-.383-1.142-.417-5.892-.354-6.204.083-7.572-.245-8.301-1.99-.467-1.116-.317-3.658.267-4.55.999-1.524.199-6.232-1.147-6.749-.197-.076-.359-.298-.359-.494 0-.286-.321-.356-1.628-.356-1.648 0-2.297.454-1.163.814.629.2 1.603 1.517 1.89 2.556.393 1.423.172 1.513-3.721 1.517-3.623.004-3.738.03-4.14.927l-.26.581-.215-.554c-.527-1.359.66-4.093 2.128-4.904 1.247-.688 1.018-.939-.837-.915-1.701.022-1.708.025-2.545.988m18.609 15.942c.801.616.5 1.091-.805 1.269-2.751.378-4.006-.062-2.73-.956 1.247-.873 2.645-.997 3.535-.313m-.406 6.508a32.32 32.32 0 0 0 2.172.677c4.088 1.053 7.936 3.537 5.479 3.537-1.029 0-1.196.394-.861 2.022.993 4.818-5.301 2.593-7.963-2.815-.758-1.539-.949-3.075-.446-3.579.341-.341.147-.36 1.619.158m-2.85 5.133c.721.386 1.952 1.647 1.778 1.821-.092.092-2.278.167-4.858.167-4.588 0-4.701.012-5.226.537-.38.38-.749.516-1.261.465-.939-.093-1.105-.596-.254-.769a6.97 6.97 0 0 0 1.47-.558c.448-.233 1.196-.494 1.663-.579s1.154-.307 1.527-.493c1.253-.625 4.42-.988 5.161-.591m19.421 3.176c.451.173.467.615.052 1.44-.573 1.138-.632 1.8-.202 2.276 2.387 2.646 2.007 3.89-.552 1.804-1.235-1.006-1.163-1.061-1.339 1.025-.316 3.745-2.344 4.881-4.742 2.658-.672-.623-1.221-1.195-1.221-1.273s-.305-.591-.677-1.141c-1.764-2.607-3.086-2.823-3.277-.535-.13 1.562-.335 1.656-1.781.816-1.107-.643-3.958-1.021-6.426-.854-4.422.301-5.866.462-6.003.671-.176.27-1.711.633-2.708.641-.416.003-.756.1-.756.215 0 .293-1.316.721-2.219.721-.456 0-.807.138-.888.348-.137.356-.846.497-.846.168 0-.534 1.494-1.447 2.37-1.447.576 0 1.153-.176 1.52-.465.413-.325.943-.465 1.762-.465.742 0 1.32-.135 1.578-.368.223-.202 1.121-.493 1.995-.645s1.798-.396 2.054-.54.988-.337 1.627-.43 1.373-.279 1.628-.413 1.25-.38 2.21-.548a45.91 45.91 0 0 0 3.837-.904l3.256-.909c.639-.171 1.552-.479 2.027-.684s1.104-.38 1.395-.388 1.107-.211 1.81-.45c1.249-.424 3.782-.606 4.516-.324m28.347 7.68c3.25.445 3.092 4.722-.302 8.202-2.091 2.144-4.027 3.114-7.738 3.877-.864.178-1.874.479-2.243.67s-1.126.417-1.683.502-1.275.284-1.594.442-1.105.357-1.745.445a15.86 15.86 0 0 0-2.247.507c-.596.192-1.8.44-2.674.551a130.23 130.23 0 0 0-3.8.568c-1.215.201-2.66.366-3.212.367s-1.218.116-1.479.255-2.32.351-4.577.47c-4.149.218-5.613.511-8.057 1.613-.512.23-1.147.48-1.411.555s-1.468.653-2.674 1.286c-5.19 2.721-7.106 3.551-10.334 4.478-2.375.681-2.315.696-2.397-.585-.103-1.619-1.313-1.842-4.694-.864-.447.13-1.237.235-1.756.235-1.19 0-1.502.314-1.502 1.515 0 1.865-2.314 2.957-4.006 1.89-.291-.183-.774-.406-1.074-.496-1.574-.471-4.054-2.788-4.413-4.124-.414-1.538.154-2.569 1.832-3.325 1.083-.489 1.146-.7.278-.922-4.882-1.247-7.66 2.4-7.164 9.404.174 2.446.118 2.587-.756 1.914-.598-.46-.861-.882-1.893-3.039-2.089-4.367.108-8.616 5.452-10.546 3.124-1.129 6.958-1.996 7.649-1.731.292.112.375.483.375 1.685 0 1.729 1.221 3.349 3.033 4.026.442.164 1.17.461 1.618.659 1.107.489 3.761.668 4.622.311 1.355-.561.854-2.075-.929-2.813-.897-.372-.938-1.431-.078-1.994l.593-.389-.631-.658c-.347-.362-.971-.771-1.387-.908-2.231-.736-1.4-2.295 1.414-2.655.64-.081 2-.344 3.024-.584l4.186-.927c1.279-.27 2.953-.698 3.721-.95s1.636-.459 1.93-.459.866-.172 1.272-.381 1.316-.517 2.023-.682c2.528-.592 4.086-1.052 4.694-1.387.34-.188.863-.345 1.163-.351s.964-.17 1.476-.366c.91-.349 1.944-.632 5-1.368.831-.2 1.982-.512 2.558-.693a15.58 15.58 0 0 1 2.093-.477c.575-.081 1.517-.296 2.093-.478 2.113-.667 8.605-1.458 8.605-1.048 0 .14-.154.254-.341.254-.743 0-1.316 2.76-.822 3.955.467 1.127 3.829 1.634 4.44.67.86-1.358-.975-4.625-2.599-4.625-.871 0-.428-.363.775-.635 3.476-.787 13.086-1.286 16.293-.846m-9.695 2.652c-.736.22-1.772 1.09-1.772 1.488 0 .139-.207.381-.459.539s-.409.444-.349.637c.374 1.195.356 1.17.584.81.119-.188.218-.63.22-.982.003-.517.109-.64.556-.64.714 0 3.169-1.083 3.169-1.398 0-.189-1.049-.762-1.237-.675-.023.011-.344.111-.712.221m-58.517.48c0 .11-.287.269-.639.353s-.804.294-1.006.469c-.58.501-3.211 1.282-4.017 1.193l-.733-.082.698-.2a3.18 3.18 0 0 0 1.21-.746c.281-.299.755-.545 1.052-.545a2.05 2.05 0 0 0 1-.321c.783-.547 2.435-.63 2.435-.121m31.512 3.823c-.384.175-.959.324-1.279.331-.498.009-2.436.848-3.455 1.495-1.003.636 1.244.793 2.476.173 1.246-.628 2.742-.769 4.409-.417 2.294.485 4.942-.182 4.942-1.245 0-.773-5.565-1.037-7.093-.337m54.768 1.091c1.674.985 2.381 2.18 1.951 3.3-.214.56-.48.457-1.671-.648-.602-.559-1.408-1.181-1.792-1.383s-1.012-.627-1.395-.944l-.698-.576.581-.243c.752-.314 1.997-.11 3.024.494M38.93 51.108c-1.568 1.047-.268 2.613 2.168 2.613.88 0 1.717-.118 1.861-.261.94-.941-2.839-3.147-4.029-2.352m-4.627.839c-.422.309-.419.325.07.48.628.2.998-.006.825-.458-.163-.424-.339-.428-.895-.022m.06 2.603c-1.024.556-1.081 2.194-.076 2.194.313 0 2.002.836 3.736 1.848 2.847 1.663 3.55-.047 1.078-2.622-1.723-1.795-3.219-2.244-4.738-1.42m47.791.936c2.207 1.052 3.09 8.202 1.778 14.398l-.506 2.502-.26 1.34.9.921c1.389 1.422 1.792 9.951.741 15.68-.022.119.219.351.535.515.8.416.904.812.907 3.46.002 2.144-.115 3.242-.546 5.132-.156.683-.12.725.846 1.014 1.566.467 1.674.872.776 2.903-.537 1.215-.62 1.296-1.076 1.052-.769-.412-1.53.057-1.797 1.11-.408 1.6-.762 3.836-.629 3.969.072.072.13-.044.13-.257s.156-.388.346-.388.602-.405.915-.901c1.292-2.047 2.534-2.429 2.931-.901l.46 1.686c.111.384.274 1.221.362 1.86s.305 1.518.482 1.952.384 1.375.46 2.093.34 1.984.588 2.816l.892 3.023.816 2.675c.429 1.328.908 3.18 1.474 5.697.246 1.093.674 2.161 1.147 2.861 1.018 1.504.97 1.806-.433 2.715-2.095 1.357-2.509 3.494-.676 3.494 1.29 0 4.708 3.666 4.975 5.336.191 1.197.514 1.202.87.013.426-1.422.798-1.272 2.764 1.122.665.809 1.508 1.653 1.875 1.876.658.4 2.808 3.445 3.114 4.411.087.274.249.498.359.498s.271.22.357.489.408.871.717 1.337l.79 1.197 1.517 2.326c1.402 2.15 2.732 3.755 5.492 6.628 3.096 3.222 3.305 3.568 2.718 4.507-.77 1.234 4.479 7.367 8.525 9.959.64.411 1.292.857 1.448.992s.523.349.814.475.686.331.878.456.715.385 1.163.577.971.448 1.163.568c.706.443 2.348 1.187 2.623 1.188.156.001.545.137.865.304 1.052.546 7.153 2.485 7.822 2.485.254 0 .685.301.958.669 2.094 2.834 6.503 6.559 8.429 7.123.32.094.739.303.931.466.676.575 4.343 1.118 6.571.974 2.011-.13 2.076-.119 1.956.34-.198.758.328 1.591 1.327 2.1 1.179.602 4.944 1.817 5.629 1.817.287 0 1.185.207 1.996.462s1.689.463 1.952.465c.7.004 2.93 1.173 2.829 1.482-.523 1.591-7.308 2.254-9.702.949-.753-.411-3.143-1.02-5.352-1.364-1.56-.242-2.851-.697-4.648-1.637-.32-.167-.914-.375-1.321-.462s-.865-.308-1.017-.492-.448-.334-.656-.335-.69-.164-1.072-.363c-3.435-1.791-6.563-2.543-10.585-2.543h-3.605l-1.279.749c-3.588 2.099-4.577 2.269-3.41.585.341-.492.619-1.008.619-1.147s.175-.32.388-.402c.284-.109.319-.218.13-.406-.26-.261-.501-.071-3.19 2.523-2.212 2.134-3.66 1.849-5.588-1.098-1.65-2.522-3.447-3.352-5.244-2.423-.667.344-.754.323-2.604-.64-2.093-1.089-2.63-1.939-1.58-2.501.643-.344.603-.619-.143-.983-.882-.43-.878-.622.046-2.053l.823-1.273-.489-.4c-.582-.475-.958-.537-5.339-.879-7.186-.559-10.846-2.203-11.936-5.359-.501-1.45-.152-1.711 2.03-1.518 2.7.239 4.325 1.169 3.262 1.866-2.399 1.571 3.904 4.248 7.957 3.378 2.221-.476 2.228-.589.162-2.699l-3.526-3.646c-2.797-2.93-6.516-5.921-8.415-6.766-.191-.085-1.186-.622-2.209-1.192-1.972-1.098-4.531-2.367-7.209-3.575-.895-.404-2.015-.941-2.488-1.193s-.972-.459-1.109-.459-1.135-.419-2.217-.931-2.04-.93-2.128-.93-.797-.301-1.575-.668c-2.766-1.309-3.539-1.657-3.676-1.657-.249 0-3.302-1.852-3.988-2.419-1.299-1.073.209-1.475 2.155-.574l2.351 1.092a36.85 36.85 0 0 1 2.757 1.481c.812.487 1.526.885 1.586.885s.247.138.416.306c.602.602 3.459.968 4.455.571 1.351-.539 1.65-3.036.533-4.456-.244-.31-.446-.653-.448-.76-.032-1.451-3.252-4.109-5.761-4.755-.987-.254-2.328-.719-2.981-1.034-1.191-.573-1.436-.765-3.814-2.981-.704-.656-1.572-1.344-1.928-1.529l-.648-.335.533-.296c.293-.163.863-.3 1.267-.304 1.037-.012 3.601-1.252 4.121-1.993 1.29-1.84-.171-4.806-4.501-9.136-2.822-2.821-3.235-2.67-1.633.599.512 1.043.93 2.039.93 2.212s.154.517.342.765.344.791.348 1.207c.011 1.05-1.261 1.141-1.627.116-.126-.351-.385-.917-.576-1.256s-.347-.791-.347-1.003c0-2.138-3.558-5.473-5.838-5.473-.706 0-.746.078-.999 1.957-.068.5-.205.988-.306 1.085-.353.337-1.053.327-1.219-.019-.94-1.956-.912-1.942-3.163-1.525-1.958.363-3.431-1.909-3.642-5.615-.165-2.88-.991-4.238-4.12-6.77-3.617-2.926-4.535-4.774-1.637-3.296 1.18.602 3.469.853 4.372.478 1.658-.686 1.391-2.502-.774-5.279-.512-.656-1.139-1.491-1.395-1.856-1.449-2.068-2.341-2.179-3.947-.492-2.606 2.738-3.762 3.238-4.558 1.971-.516-.821-.512-1.09.074-5.214.4-2.818.229-3.267-.955-2.509-1.853 1.188-1.879 1.282-1.398 5.031.331 2.58.21 2.779-1.659 2.723-1.678-.051-1.915.084-1.603.908.301.793 1.066 1.623 1.891 2.053a2.69 2.69 0 0 1 .973.984c.186.359.685.901 1.109 1.204s1.294 1.119 1.933 1.814l1.163 1.263-.671.494c-.37.271-1.153.886-1.74 1.366-2.119 1.729-3.277.862-4.325-3.239-.83-3.252-3.103-6.149-5.431-6.922l-1.232-.409.944-.953c1-1.01 1.067-1.202.732-2.086-.367-.963-3.233-3.598-4.73-4.347-.728-.365-.856-1.168-.265-1.659.206-.171.999-1.075 1.761-2.008 2.447-2.994 3.791-3.123 5.794-.555 1.483 1.899 1.524 2.08.575 2.477-2.348.981-2.155 4.268.427 7.259.459.532 1.837.74 2.098.317.485-.784.172-8.807-.39-10.034-.485-1.056-2.427-3.248-2.879-3.248-.063 0-.658-.254-1.322-.564-1.388-.648-2.059-.755-3.143-.502-1.909.445-2.686-.173-3.919-3.12-.749-1.792-.425-2.499 1.274-2.775.794-.129.877-.219 1.096-1.183.285-1.258.956-2.554 1.322-2.554.147 0 .461-.176.698-.391.316-.285.98-.414 2.461-.478 2.389-.104 3.487-.506 4.122-1.513l.764-1.211c.44-.698.175-2.217-.637-3.655-2.905-5.143-2.784-7.733.337-7.238 3.014.477 6.006-.195 8.632-1.938 1.3-.863 2.139-2.084 1.72-2.503-.841-.841-.31-1.073 2.462-1.073h2.698l.732-.762c.403-.419.911-1.099 1.129-1.512.463-.875.845-.924 2.869-.369 1.982.545 5.308 1.199 5.514 1.085.401-.223.128-1.014-.465-1.35-1.527-.864-1.98-1.182-1.979-1.393.001-.369 1.732-1.229 2.802-1.392.548-.084 1.333-.293 1.744-.464s2.317-.533 4.235-.802c4.936-.692 4.946-.694 5.353-1.101.854-.855 2.78-1.171 3.894-.64m150.393 6.848c-.322.086-.791.277-1.043.423s-.719.376-1.039.511-.962.474-1.428.756c-1.633.985-3.519 2.011-3.951 2.148-.239.076-.435.232-.435.346s-.445.322-.988.461c-.93.237-1.509.469-3.4 1.359-3.094 1.458-2.283 3.091 2.657 5.351.65.297 1.579 1.557 2.361 3.201l.649 1.366v28.39 28.39l-.702 1.145c-.583.95-.984 1.283-2.365 1.959-2.732 1.337-3.618 2.825-2.405 4.039.362.363 3.922.333 7.333-.061 2.056-.238 4.499-.287 9.287-.19 7.541.154 7.806.105 7.806-1.452 0-1.409-.92-1.945-4.41-2.571-2.678-.48-4.342-1.746-5.042-3.835-.512-1.531-.986-54.049-.575-63.816.314-7.475.004-8.538-2.31-7.92m126.486.647l-3.196 1.845c-1.162.671-2.205 1.221-2.318 1.221s-.331.15-.483.333-.61.405-1.017.491-1.054.34-1.438.566-.994.48-1.356.566-1.07.427-1.573.761c-2.143 1.417-1.276 3.069 2.284 4.351 1.443.519 2.886 1.918 3.595 3.485l.539 1.191.071 26.511c.092 34.057.246 32.714-3.908 34.218-2.12.768-3.071 2.981-1.708 3.978.501.365 8.751.211 11.273-.211.973-.163 3.527-.217 6.914-.148 5.268.109 5.38.101 5.841-.389 1.003-1.068.17-2.774-1.481-3.032-7.286-1.137-7.448-1.297-7.845-7.734-.333-5.388.279-6.969 3.272-8.459.327-.163.751-.421.943-.575.432-.346 1.356-.461 1.989-.248.391.132 1.506 1.667 3.012 4.145.746 1.229 2.97 4.382 3.26 4.623.189.156.344.381.344.498s.863 1.289 1.918 2.604l2.384 3.043c.256.358.631.822.835 1.03s1.282 1.396 2.397 2.64c2.524 2.817 2.703 2.882 6.958 2.526 1.659-.139 4.466-.253 6.238-.253H400v-2.296-2.295l-1.82-.106c-3.534-.204-11.702-6.657-14.326-11.316-.118-.21-.798-1.106-1.511-1.99s-1.61-2.098-1.994-2.697l-1.852-2.811c-1.361-2.032-2.216-3.656-2.217-4.218-.002-.937 4.894-5.09 9.534-8.087.758-.49 2.597-1.393 2.836-1.393.139 0 .683-.196 1.208-.435 1.048-.476 5.612-1.426 6.851-1.426 1.655.001 2.617-1.915 1.647-3.278l-.481-.675-5.275-.011c-5.217-.01-13.5-.298-17.171-.596l-1.896-.154-.371.718c-.447.863-.47 1.5-.081 2.197l.324.592c.019.04 1.054.325 2.301.634 4.332 1.072 4.286 2.337-.22 6.072l-2.812 2.344-3.594 3.04c-3.544 2.974-4.809 3.703-5.523 3.181-.396-.29-.423-1.665-.534-27.205l-.116-26.899-.653-.561c-.849-.731-1.84-.702-3.221.094M79.271 65.379c-1.024.962-2.291 5.385-2.294 8.009-.001 1.345.647 2.999 1.391 3.549l.704.52 1.041-1.071c.652-.67 1.138-1.434 1.301-2.042.142-.535.354-1.088.471-1.23.22-.27 1.008-4.484.865-4.628-.359-.359-1.169.869-1.324 2.005-.118.872-.393 1.572-.858 2.184l-.684.9-.074-.875c-.04-.482.143-1.796.407-2.921.596-2.537.612-3.751.061-4.432l-.42-.519-.587.551m-66.076 2.295c.09.525-.222.873-.864.965-.606.086-.877-.409-.608-1.11.174-.453 1.39-.333 1.472.145m145.349 1.056c-1.277 1.185-.782 2.255 1.689 3.65 2.559 1.446 4.008 2.796 4.927 4.592l.538 1.051v27.675 27.674l-.545 1.163c-1.238 2.641-2.666 3.901-4.78 4.218-2.067.311-2.925 2.192-1.51 3.31.748.592.741.592 4.393.037 3.147-.478 15.164-.26 19.767.36 1.466.197 3.66-.623 3.866-1.446.251-.998-.183-2-.962-2.224l-1.392-.415c-.384-.118-1.64-.33-2.791-.47-3.905-.475-5.311-1.459-5.808-4.068-.466-2.446-.528-24.371-.072-25.631.388-1.074.547-1.092 7.235-.804 8.289.358 10.376 1.477 11.229 6.023.089.475.408 1.422.71 2.104l.548 1.239 1.213-.07c1.758-.102 1.798-.238 1.804-6.117.005-5.157.48-12.189.962-14.254.381-1.635-.25-2.405-1.994-2.431-1.488-.023-2.107.725-2.32 2.803-.514 5.012-1.35 5.36-13.326 5.552l-5.633.09-.368-.88c-.631-1.509-.411-25.449.244-26.564.7-1.192 1.185-1.245 10.227-1.112 8.495.124 11.34.459 12.461 1.466.201.182.481.33.621.33.306 0 2.177 2.204 2.568 3.024a12.48 12.48 0 0 0 .492.93c.119.192.498.924.842 1.628 1.063 2.169 2.103 2.83 3.42 2.17.798-.399.816-.498.986-5.426.078-2.238.248-4.541.378-5.116 1.055-4.643.809-4.874-4.675-4.385-5.207.465-39.498.537-41.294.087-2.052-.514-2.899-.459-3.65.237M34.928 72.824c2.464.539 2.383 2.855-.135 3.88-2.001.814-2.304.829-3.602.171-1.747-.885-1.548-1.468.451-1.32.964.072 1.862-.339 1.265-.579-.256-.102-.82-.427-1.253-.721s-.963-.534-1.177-.534c-.602 0-1.267-.588-1.114-.985.155-.405 3.559-.351 5.565.088m-10.656 3.055c.778.569-.512 2.261-1.725 2.261-1.05 0-2.187-1.872-1.411-2.325.553-.323 2.665-.28 3.136.064m31.238-.119c-.834.185-.971 1.264-.235 1.853.821.657.966.656 1.219-.008.43-1.132-.06-2.049-.984-1.845m-5.598 1.171c-.064.103-.02.601.097 1.105a10.85 10.85 0 0 1 .218 1.978c.006 1.126.062 1.193 2.287 2.718 2.618 1.796 4.028 1.701 2.458-.165-.572-.679-.586-.751-.224-1.15.379-.419.131-1.65-.332-1.65-.337 0-3.68-2.355-3.805-2.681-.143-.372-.514-.454-.699-.155m-21.64 1.932c.242.392-.397.7-1.162.559-.81-.148-.927-.24-.724-.569s1.682-.32 1.886.01m-2.923 2.108c0 .239-.89.477-1.161.309-.328-.203-.293-.756.056-.875.312-.106 1.105.3 1.105.566m23.256 3.547c0 .218.461.428 1.337.608.735.151 1.421.42 1.523.598s.316.323.474.323.703.213 1.21.474c1.064.549 2.451.704 2.598.291.089-.252-1.029-.856-4.154-2.248-1.088-.484-2.988-.513-2.988-.046m-3.592.651c-.979 1.397 2.018 4.251 5.087 4.845.631.123 1.319.379 1.53.569s.584.348.83.349.747.157 1.113.349c1.464.763 1.777-.318.422-1.454-4.107-3.445-8.307-5.622-8.982-4.658m-21.62.907c1.588.4 2.061 1.831.605 1.831-1.089 0-3.079-1.201-2.804-1.692.262-.468.765-.5 2.199-.139m17.925 1.521c-.496.496-.254.81 3.505 4.554.681.678 3.322.963 3.672.397.186-.302-1.513-1.983-2.914-2.88l-1.662-1.089c-.339-.231-.89-.487-1.223-.571s-.665-.246-.735-.359c-.152-.246-.428-.268-.643-.052M15.28 91.591c.159 1.18-.367 1.323-1.387.376-.677-.627-.814-1.435-.381-2.244.392-.732 1.589.533 1.768 1.868m7.661-1.78c.94.34 1.488 1.529.902 1.958-.316.231-2.129.097-2.285-.17-.028-.048-.25-.323-.492-.611-.847-1.006.32-1.739 1.875-1.177m17.757 1.584c0 .128.104.233.232.233s.233.196.233.437.157.566.349.726.348.433.348.61c0 .43-1.255.42-1.615-.014-.445-.536-2.137-1.332-2.52-1.185-.397.153-.496.012 1.503 2.119.616.65 1.539 1.678 2.051 2.284 1.263 1.496 2.22 2.072 2.968 1.788 2.65-1.007 1.748-5.857-1.2-6.446-.391-.079-.831-.287-.977-.463-.306-.369-1.372-.437-1.372-.089m-18.838 2.21c0 .193.207.348.466.348.509 0 .621.342.197.604-.147.091-.383.009-.523-.182s-.57-.517-.953-.724l-.698-.377.756-.009c.521-.006.755.099.755.34m28.148 2.5c.018.611 1.123 1.694 1.423 1.394.221-.221.135-.432-.4-.977-.738-.752-1.036-.874-1.023-.417m23.874.814c-1.666 2.938-1.227 9.463.785 11.665.381.417.838 1.107 1.016 1.534.405.967 1.113 1.391 1.754 1.048 1.09-.584 1.61-3.815.734-4.565-.447-.383-.497-.663-.497-2.796 0-2.818-.084-3.107-.908-3.107-.761 0-1.185-.384-1.185-1.074 0-1.089-1.375-3.277-1.699-2.705m-5.601.658c-.225.584-.164 1.725.091 1.725.128 0 .233-.471.233-1.046 0-1.101-.09-1.289-.324-.679m13.347 1.028c0 .639.105 1.162.232 1.162s.233-.523.233-1.162-.105-1.163-.233-1.163-.232.523-.232 1.163m1.987-.947c-.214.346-.2 2.965.018 3.318.259.419.518-.451.533-1.79.014-1.238-.26-1.998-.551-1.528M17.46 98.779c.291.48.83 1.5 1.197 2.268l.878 1.781c1.55 2.842 2.406 6.955 1.53 7.354-.589.268-.509.652.45 2.144.33.513 1.508 3.474 1.51 3.794 0 .152.141.544.313.872a6.84 6.84 0 0 1 .477 1.279c.214.881 1.13 3.154 1.87 4.636.716 1.436.719 1.498.071 1.343-1.05-.252-3.296-3.661-5.175-7.855-.344-.767-.772-1.673-.952-2.012s-.327-.747-.327-.905-.202-.718-.448-1.243-.722-1.584-1.056-2.351c-.623-1.432-1.44-3.07-2.553-5.117-.711-1.308-1.517-3.682-1.521-4.483l-.003-.53.705.521c.388.286 1.039 1.048 1.447 1.693s.928 1.308 1.156 1.475.413.501.413.743.105.502.232.581c.367.227.262-1.337-.123-1.846a1.85 1.85 0 0 1-.343-.931c-.001-.263-.166-.792-.366-1.176-1.051-2.011-.489-3.859.618-2.035m255.447-.654l-2.81.441c-.906.142-1.953.418-2.326.612s-.848.355-1.057.355c-.376.002-2.547.892-3.727 1.529-.339.183-.749.333-.912.333s-.464.154-.672.342-.878.608-1.488.933c-1.053.56-2.396 1.535-3.527 2.563-2.126 1.929-1.948 4.959.357 6.088 3.213 1.574 7.282-.673 9.378-5.179 1.075-2.313 2.916-3.297 5.679-3.039 2.38.222 3.502.905 5.212 3.173 1.376 1.823 1.674 8.429.479 10.615-.375.687-1.975 1.47-3.772 1.846l-2.791.584a45.1 45.1 0 0 0-3.096.823c-.999.304-1.993.557-2.209.562s-.811.21-1.323.457-1.067.453-1.234.457c-.516.013-4.646 2.064-5.926 2.942-3.564 2.444-5.716 6.636-4.853 9.452.128.414.296 1.23.374 1.813.383 2.845 3.926 6.21 7.298 6.934 3.261.699 11.364-.367 12.132-1.597.064-.102.535-.303 1.047-.446s1.133-.416 1.381-.605.627-.346.841-.346.655-.209.981-.465c1.233-.97 3.013-.348 4.056 1.419 1.149 1.945 4.688 2.627 7.321 1.411.6-.277 1.155-.504 1.232-.504.179 0 3.709-2.028 4.75-2.73 1.316-.886 1.8-1.952 1.384-3.046-.353-.93-.567-.978-3.691-.827-3.472.168-3.897.04-4.608-1.385l-.532-1.064.131-9.834.17-12.044c.111-6.186-1.18-9.417-4.534-11.35-1.711-.987-6.516-1.631-9.115-1.223m46.046.031c-4.402.583-5.507.935-8.184 2.603-1.23.767-3.556 3.1-3.558 3.57-.001.143-.195.509-.43.814-.485.627-1.433 4.312-1.432 5.569.001 3.842 2.843 8.4 6.279 10.071a27.21 27.21 0 0 1 1.279.719c.512.303 1.715.933 2.674 1.401s1.902.949 2.093 1.068.506.279.698.353c.665.258 2.909 1.299 3.256 1.511.192.117.61.317.93.444s.739.336.93.463.751.447 1.242.713c3.977 2.151 5.138 6.711 2.345 9.208-2.131 1.905-5.109 2.248-10.817 1.245-3.027-.532-6.575-3.119-8.647-6.306-2.368-3.64-4.049-1.993-3.943 3.861.089 4.876.611 5.802 3.541 6.281.576.094 1.222.263 1.437.375 1.502.788 12.471 1.631 14.671 1.128l2.73-.585c1.898-.384 3.825-1.079 4.379-1.58.233-.211.545-.384.693-.384.959 0 4.262-3.913 5.007-5.931 2.276-6.165-.454-12.359-6.919-15.7l-1.765-.927c-1.021-.571-2.753-1.346-3.314-1.482-.352-.085-.64-.25-.64-.365s-.325-.281-.722-.368c-.629-.138-2.406-.918-3.464-1.519-.192-.109-1.029-.538-1.86-.953-3.693-1.844-5.193-4.987-3.739-7.837 1.63-3.195 9.963-3.574 13.692-.623 1.039.822 2.891 2.761 3.738 3.914 2.333 3.174 5.792 2.109 4.351-1.34-.182-.434-.4-1.399-.486-2.143s-.3-1.877-.477-2.517-.382-1.559-.456-2.043c-.237-1.54-1.77-2.002-9.065-2.734-2.415-.243-4.077-.236-6.047.026M54.792 99.672c-.693 1.804 1.892 9.553 3.984 11.944 1.091 1.247 1.5 1.305 2.407.339.537-.572 1.687-.764 1.957-.327.307.497.813.228.813-.433 0-.391.291-1.031.702-1.549 1.031-1.297.25-2.595-4.511-7.495-3.486-3.587-3.895-2.541-1.131 2.89.66 1.296.092 2.058-.655.877-1.073-1.698-2.732-4.951-2.888-5.664-.185-.842-.481-1.096-.678-.582m-6.784 2.746c-.209.836-.03 1.652.364 1.652.192 0 .384-.246.426-.547.101-.714-.142-1.663-.426-1.663-.123 0-.287.251-.364.558m4.79 2.109c-.653.785.773 3.057 1.526 2.432.39-.324.347-1.932-.061-2.31-.435-.401-1.182-.464-1.465-.122m-17.927 7.786c.46.291-.568 1.157-1.385 1.168-.724.009-1.386-.869-.891-1.183.414-.262 1.853-.253 2.276.015m11.72 1.305c-.077.199-.291.304-.477.233s-.434-.13-.552-.13-.213-.105-.213-.233.311-.232.69-.232c.53 0 .658.084.552.362m6.246 6.324c.588.628.831 1.47 1.697 5.872.408 2.074.859 2.846 2.78 4.752.91.904 1.8 2.01 1.976 2.457s.47.989.651 1.202c.48.566.285 1.457-.339 1.546-.599.085-1.377-.234-4.718-1.935-4.717-2.4-7.108-3.544-8.721-4.172-1.861-.724-3.14-1.606-3.14-2.163 0-.37-1.07-2.117-1.478-2.414-.11-.08-.254-.619-.319-1.198-.185-1.644 1.055-1.981 3.425-.932l1.744.777c6.18 2.768 7.613 1.878 4.982-3.091-.432-.815-.269-1.108.731-1.314.072-.015.4.261.729.613m-30.233 3.139c.557.8 1.42 2.27 1.917 3.266s.992 1.867 1.099 1.933.194.298.194.516.209.787.465 1.265.465.981.465 1.119c0 1.448 2.811 5.656 8.145 12.192 1.377 1.687 1.517 1.916 2.859 4.688.467.964 1.037 1.786 1.355 1.953 1.355.714 3.293 2.845 4.005 4.406.204.447.47.971.591 1.162.26.412.854 2.203 1.273 3.838.835 3.254 3.034 5.593 5.713 6.074 1.251.225 1.721.762 3.311 3.777 1.329 2.521 2.844 3.859 4.646 4.107 1.099.151 1.163.197 1.057.754-.199 1.04 4.443 6.406 5.781 6.682l1.155.24c2.189.455 6.846 4.505 6.852 5.957.003.799-2.108.911-3.687.194-.557-.253-1.144-.46-1.302-.46-1.018 0-4.242-2.386-6.179-4.572-1.567-1.767-3.953-3.989-4.47-4.161-.224-.075-.407-.23-.407-.345s-.249-.343-.553-.507c-.503-.272-2.951-2.327-3.846-3.229-1.661-1.674-6.066-7.044-6.066-7.395 0-.11-.471-.806-1.047-1.548s-1.046-1.426-1.046-1.523-.393-.787-.872-1.535l-1.165-1.819c-.161-.252-.418-.72-.572-1.04s-.467-.831-.696-1.136-.416-.761-.416-1.013-.297-.84-.66-1.306a82.98 82.98 0 0 1-1.987-2.769l-4.911-7.214c-.128-.218-.442-.67-.698-1.005a21.42 21.42 0 0 1-.751-1.048l-1.337-2.027c-.578-.874-1.052-1.659-1.052-1.745s-.394-.731-.876-1.435-1.01-1.541-1.174-1.86a34.93 34.93 0 0 0-.853-1.512c-2.817-4.717-6.136-12.627-5.546-13.217.231-.231.199-.263 1.286 1.298m254.438-.775c1.393.53 1.486 1.486.905 9.322-.23 3.107-.599 3.774-2.37 4.288-.317.092-.891.304-1.275.47-1.906.827-5.973 1.161-7.868.646-3.314-.901-4.224-2.116-4.224-5.646l-.001-2.451.977-1.227c.536-.675 1.217-1.412 1.511-1.638 1.124-.864 4.782-2.582 5.498-2.582.271 0 .888-.158 1.371-.351.714-.286 3.426-.878 4.64-1.013.151-.017.528.065.836.182m-213.786 3.508c0 .128.157.233.349.233s.348-.105.348-.233-.156-.233-.348-.233-.349.105-.349.233m26.899 2.481c-.298.298-.151 1.745.288 2.825.244.599.502 1.272.574 1.496.197.611.814.49.985-.194.458-1.824-.966-5.008-1.847-4.127m-48.106 2.463c.053.276-.071.405-.39.405-.534 0-.829-.348-.605-.711s.906-.157.995.306m.286 6.728c.691.51.941 1.357.398 1.345-.629-.014-1.944-1.367-1.57-1.615.451-.3.378-.317 1.172.27m29.277.287c.612.653.472 1.064-.362 1.064-.898 0-1.483-.416-1.483-1.054 0-.791 1.105-.797 1.845-.01m-10.565 1.546c.767.252 2.311.729 3.43 1.062s2.035.689 2.035.793c0 .305-1.27 1.122-2.237 1.44-1.45.476-1.579 1.309-.382 2.471 1.051 1.02 1.04 1.194-.076 1.194-1.791 0-1.926.533-.378 1.496 2.252 1.401 2.852 1.981 2.695 2.606-.122.486.098.814 1.415 2.112 2.017 1.987 2.311 2.449 2.133 3.343-.177.886.067 1.354 1.314 2.52 1.355 1.268.95 1.805-.71.941-2.425-1.263-4.864-2.668-5.635-3.249-.448-.337-1.442-.905-2.209-1.262-3.659-1.703-5.342-2.584-5.866-3.069-.313-.291-.685-.567-.824-.614s-.184-.268-.097-.493c.174-.454.915-.344 1.573.231.408.358 1.743.437 1.942.115.07-.114-.917-1.029-2.194-2.035-2.439-1.92-2.593-2.13-1.889-2.57.62-.387.377-1.396-.437-1.817-1.667-.862-2.371-2.619-.995-2.486.818.079 1.229-.407 1.229-1.451 0-.664.255-.727 1.372-.338.818.286 1.306.073.661-.288-.477-.267-.521-.691-.115-1.104.375-.381 2.338-.172 4.245.452m33.875 2.201c-.204.449-.219.718-.049.887.399.4.717-.133.519-.87l-.176-.661-.294.644m-45.792 1.059c.917.837.329 1.249-.666.467-.341-.269-.756-.488-.923-.488-.385 0-.636-.393-.447-.698.225-.365 1.243-.006 2.036.719m52.64 7.356c-.326.327-.102 1.24.473 1.923.717.852 1.431.54 1.167-.51-.145-.58-1.395-1.657-1.64-1.413m6.37 10.082c0 1.027.677 2.399 2.059 4.169 2.216 2.839 3.395 2.685 2-.262-.839-1.772-1.017-2.046-2.285-3.529-1.37-1.602-1.774-1.688-1.774-.378m-44.242.375c-.222.059-.641.061-.93.005s-.108-.103.404-.106.748.043.526.101m1.8.771c.084.135-.153.232-.568.232-.391 0-.711-.104-.711-.232s.255-.233.567-.233.633.105.712.233m10.96.134c1.916.782 3.807 1.775 3.807 2.001 0 .543-4.383-.444-4.621-1.041-.048-.119-.278-.381-.511-.581-.866-.741-.101-.96 1.325-.379m-7.123.996c0 .111-.262.151-.582.09s-.581-.152-.581-.201.262-.089.581-.089.582.09.582.2m1.221.847c-.086.343-.817.282-.937-.078-.071-.213.069-.286.446-.233.302.043.523.183.491.311m-.319 1.965c.816.262 1.601.477 1.744.478s.573.164.954.363c1.141.594 3.436 1.44 4.318 1.591 2.152.367 2.837 2.132 1.037 2.675-1.964.592-7.725.413-8.803-.275-.276-.175-1.275-.603-2.22-.949-3.121-1.145-5.082-3.634-3.432-4.355.8-.349 4.751-.058 6.402.472m11.514.917c1.855.856 3.993 1.935 5.142 2.595.64.367 1.59.734 2.113.814 1.227.188 1.466.35 1.544 1.044.203 1.816-4.941.365-8.308-2.343-2.512-2.021-2.685-2.223-2.048-2.388l.511-.136c.05-.014.521.172 1.046.414m9.752.588c.872.457 2.024.898 2.558.979 1.382.209 3.555 1.248 3.148 1.506-.929.589-5.758-.351-7.99-1.554-.768-.414-1.735-.823-2.149-.909-.877-.182-1.186-.545-.73-.857.711-.488 3.502-.036 5.163.835m33.421 3.981c.39.469.005.871-.734.766-1.011-.144-.812-.894.291-1.097.08-.015.28.134.443.331m-35.228 2.668c1.141.255 2.954 1.171 2.988 1.508.111 1.119-4.546-.352-4.707-1.486-.063-.449 0-.526.33-.399.225.086.85.256 1.389.377M130 175.595c0 .12-.209.219-.465.219-.513 0-.633-.366-.175-.531.352-.126.64.014.64.312m-40.93 3.094c2.016.731 3.668 1.502 3.85 1.797.082.132.4.336.707.453.721.274.714.641-.016.824-1.665.418-6.896-2.402-6.287-3.389.18-.29-.028-.327 1.746.315m6.233.812c-.338.129-.445-.093-.268-.555.155-.403.171-.401.323.024.089.247.064.486-.055.531m-10.788.492c.743.282.566.937-.253.937-1.032 0-1.644-.461-1.12-.844.518-.379.606-.385 1.373-.093m-1.389 5.964c.535.205.008.787-.713.787-.644 0-.759-.609-.146-.77.224-.058.425-.118.447-.133s.207.038.412.116m11.262.065c.734.466-.015.947-.895.576-.642-.271-.738-.387-.465-.559.43-.272.946-.278 1.36-.017m6.832 1.849c.106.106.09.464-.036.794l-.229.602-1.229-.467c-1.644-.625-1.678-.654-1.193-1.038.439-.348 2.306-.272 2.687.109m14.357 1.141c-.008.365-1.101 1.192-1.64 1.241-1.597.146-1.977-.161-1.227-.991.388-.428 2.876-.646 2.867-.25m-29.763 5.627c.064.095.917.6 1.896 1.122s2.207 1.218 2.728 1.548 1.024.598 1.117.598 1.272.534 2.621 1.187l3.15 1.478 1.744.755c2.352 1.045 3.767 1.509 4.289 1.409.408-.078.616.032.791.418.147.321.536.586 1.01.684.423.089.981.294 1.239.457s.833.371 1.279.465 1.053.323 1.35.511.977.485 1.512.658c1.629.53 3.013 1.051 4.111 1.549 3.764 1.705 4.763 2.069 6.628 2.42 1.023.192 3.026.49 4.451.661s2.705.383 2.844.469 1.747.31 3.572.497l5.18.558c2.477.29 7.416.281 8.721-.016 2.276-.518 3.908-.525 4.95-.021 2.059.994 4.944 1.289 9.824 1.004 2.435-.143 5.313-.253 6.396-.246 3.24.022 7.131 1.104 5.3 1.474-5.262 1.063-14.588 1.419-22.168.846-5.621-.424-10.508-.931-12.209-1.265-.96-.189-2.739-.448-3.954-.577-2.801-.297-5.392-.662-7.907-1.117-1.087-.196-3.023-.489-4.302-.65-5.109-.643-7.532-1.142-11.977-2.467-.831-.247-1.741-.449-2.021-.447s-.572-.097-.648-.22-.789-.43-1.584-.681c-2.303-.729-3.493-1.169-4.155-1.54-.339-.19-.81-.347-1.046-.348s-.744-.209-1.127-.463-.857-.463-1.05-.464-.717-.197-1.163-.435-1.144-.508-1.55-.597-.865-.312-1.017-.496-.388-.334-.524-.334-.673-.199-1.193-.442a17.77 17.77 0 0 0-1.817-.715c-.48-.151-.872-.358-.872-.461s-.471-.306-1.047-.451-1.046-.358-1.046-.474-.374-.335-.831-.485-.886-.421-.955-.6-.309-.325-.534-.325-.675-.21-1-.465-.665-.465-.754-.465c-.292 0-2.438-1.468-2.438-1.668 0-.592 2.581.311 3.71 1.298.198.173.586.383.862.467s.629.306.784.493a1.03 1.03 0 0 0 .688.34c.222 0 .654.195.959.435a3.82 3.82 0 0 0 1.295.596c.407.089.864.312 1.017.495s.579.334.948.334c.384 0 .842.2 1.07.465.285.333.686.465 1.412.465 1.23 0 1.231-.46.002-.811-.452-.129-.967-.357-1.146-.507s-.638-.347-1.021-.438-.906-.346-1.161-.567-1.094-.702-1.861-1.069-1.919-1.014-2.558-1.436-1.398-.828-1.686-.902-.523-.222-.523-.329-.287-.332-.637-.499c-1.298-.623-.981-1.197.556-1.006.748.094 1.412.248 1.476.343m7.791.594c0 .919-.994 1.009-1.433.129-.374-.751-.192-.985.699-.898.644.062.734.156.734.769m-12.21.581c0 .128-.15.233-.335.233s-.4-.105-.479-.233.072-.233.336-.233.478.105.478.233m66.848 1.822c1.189 3.767-1.81 7.165-3.694 4.184l-.393-.621-1.031.696c-2.474 1.669-3.029.014-.738-2.199 2.626-2.537 5.398-3.512 5.856-2.06m-7.08.969c0 .128-.216.232-.479.232s-.414-.104-.335-.232.294-.233.479-.233.335.105.335.233m52.924.354c2.037.196 3.935.453 4.217.572s1.904.337 3.605.484c3.542.306 3.596.329 2.853 1.253-.693.861-3.537 1.018-10.925.604-5.521-.31-4.705-.296-6.977-.125-2.784.208-3.942-.679-2.568-1.969 1.199-1.127 4.071-1.367 9.795-.819m-39.717.604c.077.409-1.174 1.688-2.578 2.633-1.095.738-1.181.737-1.771-.013l-.478-.608.527-.673c1.15-1.47 4.101-2.389 4.3-1.339m82.906.588c1.417.234.875.631-1.481 1.085-5.439 1.046-10.278.611-7.488-.674.798-.367 7.403-.67 8.969-.411m-26.346.48c-.192.071-.479.233-.639.359-.208.164-.291.122-.291-.148 0-.261.197-.371.64-.359.364.011.489.074.29.148m-106.321 1.171c.085.596-.3.676-1.226.254s-.76-.935.28-.849c.7.058.887.175.946.595m-9.1.376c-.072.188.028.403.222.477.558.214 1.711.158 1.711-.083 0-.523-1.747-.879-1.933-.394m63.863.139c.268.247-1.436 1.676-1.895 1.589-.649-.124-.589-1.011.105-1.558.601-.472 1.298-.485 1.79-.031m-5.422.926c.006.583-1.2 1.641-1.872 1.641-1.028 0-1.245-.521-.504-1.21 1.328-1.237 2.365-1.425 2.376-.431m-24.183-.012c0 .208-.546.49-.949.49-.117 0-.213-.157-.213-.349 0-.217.219-.349.581-.349.32 0 .581.094.581.208m-16.694 1.059c.548.185 1.625.438 2.392.562s1.709.347 2.093.496c.633.246 1.996.518 6.047 1.207 2.193.373 4.528 1.541 3.942 1.973-.801.59-6.175-.138-9.756-1.322-.768-.254-1.593-.462-1.835-.462-.402 0-2.087-.686-2.933-1.195-.41-.246-1.551-.761-2.203-.992-.384-.137-.403-.199-.116-.38.489-.309 1.224-.274 2.369.113m51.229.361c-.112.182-.246.196-.401.041-.128-.128-.157-.356-.064-.506.113-.182.247-.196.402-.04.127.127.156.355.063.505m-3.604.208c0 .753-1.333 1.739-1.622 1.199-.367-.685-.299-.863.517-1.352.837-.501 1.105-.464 1.105.153m7.442-.111c0 .748-2.197 2.461-3.155 2.461-.908 0 .707-2.176 1.82-2.451.352-.087.699-.251.769-.365.247-.4.566-.201.566.355m10.364 8.999c.178.288-.292.664-.83.664s-1.008-.376-.83-.664c.088-.142.462-.259.83-.259s.743.117.83.259" fill="#0b0b0b"/><path d="M0 27.558C0 56.433.01 56.709.941 54.36c.49-1.236 4.268-5.523 4.868-5.523.112 0 .343-.131.512-.29.522-.494 2.18-1.57 2.419-1.57.124 0 .485-.183.801-.407s.994-.512 1.506-.64c1.163-.291 1.123-.564-.153-1.035-4.198-1.551-1.45-7.795 3.741-8.5 6.362-.864 9.948-6.811 6.686-11.087-1.299-1.703-.258-3.48 3.446-5.88 5.13-3.325 6.158-6.361 2.915-8.609-3.878-2.687-5.276-7.368-2.891-9.679.435-.422.79-.85.79-.953S19.826 0 12.791 0H0v27.558M28.993.329c-.069.181-.417.469-.772.64-1.404.674-2.635 3.517-2.109 4.872l.215.554.26-.581c.402-.897.517-.923 4.14-.927 3.893-.004 4.114-.094 3.721-1.517-.287-1.039-1.261-2.356-1.89-2.556-.256-.081-.465-.298-.465-.481 0-.474-2.918-.478-3.1-.004m6.356.027c0 .196.162.418.359.494 1.346.517 2.146 5.225 1.147 6.749-.584.892-.734 3.434-.267 4.55.729 1.745 2.097 2.073 8.301 1.99 4.75-.063 5.306-.029 5.892.354.831.543 1.574 2.197 1.26 2.802-.514.987-.341 3.31.285 3.84 1.39 1.176 4.944 2.512 7.243 2.724 6.358.585 9.807 2.176 10.575 4.879.475 1.671.63 1.819 2.153 2.052.56.085 1.237.309 1.505.497s.72.341 1.003.341.586.113.672.252.589.451 1.118.695c.848.39 1.776.985 3.866 2.478 1.357.97 3.761 2.02 5.812 2.538 1.212.307 2.625.759 3.14 1.005s1.25.521 1.634.612a7.84 7.84 0 0 1 1.508.595c.445.236.995.43 1.221.43s.802.209 1.28.465 1.014.465 1.194.465.757.197 1.283.438 1.419.633 1.986.872c5.435 2.288 9.344 5.246 10.512 7.953.812 1.884.344 2.417-2.398 2.731-1.852.213-7.164-.93-9.23-1.985-2.197-1.123-7.021-2.045-8.716-1.665-3.685.824-4.307 4.541-2.944 17.586.133 1.279.338 4.366.454 6.86.222 4.736.691 10.707 1.308 16.628l.581 5.582c.23 2.209.624 4.698 1.384 8.721.253 1.343.461 2.781.461 3.196s.199 1.358.443 2.093.509 1.81.589 2.385a12.97 12.97 0 0 0 .461 1.977c.173.512.422 1.453.553 2.093.231 1.134.7 2.656 1.325 4.302.337.887.888 2.543 1.393 4.186.522 1.697 1.089 3.323 1.421 4.07.17.384.382 1.012.47 1.395s.341.933.563 1.219.47.878.552 1.314.303.921.491 1.077.343.467.343.69.187.655.416.96.542.816.696 1.136c.33.685.559 1.063 1.73 2.856.483.739.879 1.394.879 1.455 0 .393 5.163 7.458 7.215 9.875l5.108 6.124c.193.235.595.705.893 1.046s1.093 1.301 1.768 2.132c4.446 5.482 12.943 12.969 18.942 16.693.561.348 1.712 1.09 2.559 1.649s1.695 1.073 1.887 1.14a2.83 2.83 0 0 1 .698.411c.191.158.967.614 1.723 1.013s1.488.818 1.628.93 1.404.804 2.811 1.537 2.658 1.425 2.779 1.538.364.205.538.205c.28 0 1.447.482 3.66 1.512 1.409.656 3.599 1.512 3.888 1.52.164.004.717.21 1.228.457s1.088.456 1.279.465.768.218 1.28.465 1.139.454 1.395.459.779.177 1.163.382c.679.364 1.26.526 5.116 1.426 1.023.239 2.07.547 2.326.685s.936.321 1.511.409 1.518.303 2.093.479 1.675.393 2.442.482 1.801.304 2.297.478c2.066.725 3.848-.336 6.657-3.964.92-1.189 1.145-1.265 1.753-.593.538.594 1.386.517 1.386-.127 0-.354-.179-.482-.756-.538-1.31-.126-.957-.607 2.536-3.456 5.176-4.222 11.369-4.128 9.993.151-.349 1.084-2.917 4.711-4.193 5.922-.396.375-.719.777-.719.893s-.21.477-.466.802c-1.576 2.004-.583 2.408 5.78 2.352 4.63-.041 5.165-.003 6.662.473l2.907.913c3.252 1.005 6.579.391 8.504-1.571.685-.698 1.786-.947 2.08-.471.878 1.42 4.174 1.925 11.268 1.727 7.334-.205 8.686.268 9.144 3.2.691 4.421-1.508 5.919-10.654 7.258-1.282.187-2.623.452-2.98.587s-.878.247-1.159.247-.902.209-1.38.465-.999.468-1.159.471-.917.423-1.682.931c-1.495.993-2.072 1.114-2.821.589-1.871-1.311-9.148-.779-12.765.933-.384.181-1.064.398-1.512.48s-1.091.29-1.43.46-1.123.42-1.744.556-1.465.404-1.876.595c-.494.229-1.801.387-3.838.463-1.699.063-4.031.267-5.182.453l-3.837.565-3.256.465c-9.346 1.472-29.044 1.841-38.305.717-1.179-.143-3.795-.356-5.814-.473-4.011-.233-8.226-.683-13.09-1.398-1.727-.254-3.581-.461-4.12-.46s-1.447-.157-2.018-.351-1.833-.453-2.804-.576a32.24 32.24 0 0 1-3.098-.558c-.733-.184-1.803-.408-2.379-.497s-1.255-.274-1.511-.408-1.093-.372-1.861-.527c-2.544-.514-6.051-1.549-8.002-2.361-.436-.181-1.221-.421-1.744-.533-1.281-.274-3.6-1.077-4.359-1.51-.34-.193-.782-.352-.983-.352s-.864-.224-1.475-.498l-4.499-2.034c-.584-.27-1.177-.491-1.317-.491s-.291-.084-.334-.187-.897-.599-1.899-1.104c-2.567-1.294-5.255-2.782-7.959-4.407l-2.125-1.269c-.743-.442-1.455-.889-1.583-.992s-1.07-.733-2.093-1.398c-1.726-1.122-5.547-4.029-7.638-5.811-.492-.419-1.068-.859-1.279-.978s-.49-.342-.618-.496-.698-.61-1.266-1.013-1.716-1.331-2.549-2.062l-2.687-2.345c-3.131-2.711-5.639-5.355-9.629-10.147-.213-.256-.64-.832-.95-1.279a29.62 29.62 0 0 0-1.16-1.545c-.328-.402-.782-.977-1.01-1.279a263.74 263.74 0 0 0-2.064-2.642c-.907-1.151-1.894-2.459-2.192-2.907s-.959-1.389-1.469-2.093c-.775-1.071-1.958-2.81-4.899-7.209-.214-.32-.457-.764-.54-.988s-.252-.407-.376-.407-.295-.223-.381-.494-.55-1.083-1.031-1.803c-1.117-1.67-5.705-9.751-5.913-10.415-.087-.276-.311-.629-.497-.784s-.34-.471-.34-.702-.137-.558-.303-.727c-.354-.359-3.846-7.494-5.045-10.308l-.812-1.86c-.174-.384-.593-1.378-.932-2.21s-.817-1.898-1.064-2.371-.449-.998-.449-1.166-.209-.697-.465-1.174-.465-1.04-.465-1.251-.197-.812-.437-1.338c-.962-2.106-2.703-7.316-3.389-10.141a132.05 132.05 0 0 0-.931-3.489 57.89 57.89 0 0 1-.94-3.878c-.176-.919-.484-2.152-.684-2.741s-.363-1.372-.363-1.74-.198-1.228-.44-1.911a22.67 22.67 0 0 1-.683-2.404c-.135-.64-.455-2-.712-3.023l-.849-3.373c-.209-.831-.515-1.877-.68-2.325a23.48 23.48 0 0 1-.542-1.744c-.505-1.927-1.783-5.487-2.395-6.674-.244-.473-.444-.97-.444-1.104 0-.532-1.293-3.036-1.567-3.036-.235 0-.293 16.413-.293 82.79v82.791h200 200v-45-45h-3.223c-1.772 0-4.579.114-6.238.253-4.255.356-4.434.291-6.958-2.526l-2.397-2.64c-.204-.208-.579-.672-.835-1.03s-1.329-1.727-2.384-3.043-1.918-2.487-1.918-2.604-.155-.342-.344-.498c-.29-.241-2.514-3.394-3.26-4.623-1.506-2.478-2.621-4.013-3.012-4.145-.633-.213-1.557-.098-1.989.248-.192.154-.616.412-.943.575-2.993 1.49-3.605 3.071-3.272 8.459.397 6.437.559 6.597 7.845 7.734 1.651.258 2.484 1.964 1.481 3.032-.461.49-.573.498-5.841.389-3.387-.069-5.941-.015-6.914.148-2.522.422-10.772.576-11.273.211-1.363-.997-.412-3.21 1.708-3.978 4.154-1.504 4-.161 3.908-34.218l-.071-26.511-.539-1.191c-.709-1.567-2.152-2.966-3.595-3.485-3.56-1.282-4.427-2.934-2.284-4.351.503-.334 1.211-.676 1.573-.761s.973-.34 1.356-.566 1.031-.48 1.438-.566.864-.307 1.017-.491.369-.333.483-.333 1.156-.55 2.318-1.221l3.196-1.845c1.381-.796 2.372-.825 3.221-.094l.653.561.116 26.899c.111 25.54.138 26.915.534 27.205.714.522 1.979-.207 5.523-3.181l3.594-3.04 2.812-2.344c4.506-3.735 4.552-5 .22-6.072-1.247-.309-2.282-.594-2.301-.634s-.164-.306-.324-.592c-.389-.697-.366-1.334.081-2.197l.371-.718 1.896.154c3.671.298 11.954.586 17.171.596l5.275.011.481.675c.97 1.363.008 3.279-1.647 3.278-1.239 0-5.803.95-6.851 1.426-.525.239-1.069.435-1.208.435-.239 0-2.078.903-2.836 1.393-4.64 2.997-9.536 7.15-9.534 8.087.001.562.856 2.186 2.217 4.218l1.852 2.811c.384.599 1.281 1.813 1.994 2.697s1.393 1.78 1.511 1.99c2.624 4.659 10.792 11.112 14.326 11.316l1.82.106V68.983 0H217.674L35.349.356m5.581 16.323c-.96.361-1.646 1.042-1.376 1.367.473.57 4.101.303 4.34-.319.304-.791-1.732-1.51-2.964-1.048m.512 6.623c-.503.504-.312 2.04.446 3.579 2.662 5.408 8.956 7.633 7.963 2.815-.335-1.628-.168-2.022.861-2.022 2.457 0-1.391-2.484-5.479-3.537a32.32 32.32 0 0 1-2.172-.677c-1.472-.518-1.278-.499-1.619-.158m-4.45 5.334c-.695.115-1.569.362-1.942.548s-1.06.408-1.527.493-1.215.346-1.663.579a6.97 6.97 0 0 1-1.47.558c-.851.173-.685.676.254.769.512.051.881-.085 1.261-.465.525-.525.638-.537 5.226-.537 5.209 0 5.348-.034 4.259-1.051-1.337-1.249-1.751-1.333-4.398-.894m18.124 3.457c-.703.239-1.518.441-1.81.45s-.919.183-1.395.388-1.388.513-2.027.684l-3.256.909a45.91 45.91 0 0 1-3.837.904c-.96.168-1.954.414-2.21.548s-.988.32-1.628.413-1.372.286-1.627.43-1.18.387-2.054.54-1.772.443-1.995.645c-.258.233-.836.368-1.578.368-.819 0-1.349.14-1.762.465-.367.289-.944.465-1.52.465-.876 0-2.37.913-2.37 1.447 0 .329.709.188.846-.168.081-.21.432-.348.888-.348.903 0 2.219-.428 2.219-.721 0-.115.34-.212.756-.215.997-.008 2.532-.371 2.708-.641.137-.209 1.581-.37 6.003-.671 2.468-.167 5.319.211 6.426.854 1.446.84 1.651.746 1.781-.816.191-2.288 1.513-2.072 3.277.535.372.55.677 1.064.677 1.141s.549.65 1.221 1.273c2.398 2.223 4.426 1.087 4.742-2.658.176-2.086.104-2.031 1.339-1.025 2.559 2.086 2.939.842.552-1.804-.43-.476-.371-1.138.202-2.276.415-.825.399-1.267-.052-1.44-.734-.282-3.267-.1-4.516.324m22.907 7.368c-1.868.121-5.016.535-6.337.834-1.203.272-1.646.635-.775.635 1.624 0 3.459 3.267 2.599 4.625-.611.964-3.973.457-4.44-.67-.494-1.195.079-3.955.822-3.955.187 0 .341-.114.341-.254 0-.41-6.492.381-8.605 1.048-.576.182-1.518.397-2.093.478a15.58 15.58 0 0 0-2.093.477c-.576.181-1.727.493-2.558.693-3.056.736-4.09 1.019-5 1.368-.512.196-1.176.36-1.476.366s-.823.163-1.163.351c-.608.335-2.166.795-4.694 1.387-.707.165-1.618.472-2.023.682s-.978.381-1.272.381-1.163.206-1.93.459-2.442.68-3.721.95l-4.186.927c-1.024.24-2.384.503-3.024.584-2.814.36-3.645 1.919-1.414 2.655.416.137 1.04.546 1.387.908l.631.658-.593.389c-.86.563-.819 1.622.078 1.994 1.783.738 2.284 2.252.929 2.813-.861.357-3.515.178-4.622-.311-.448-.198-1.176-.495-1.618-.659-1.812-.677-3.033-2.297-3.033-4.026 0-2.09-.627-2.192-5.233-.849-3.276.955-3.909 1.236-6.225 2.766-2.659 1.755-3.532 5.51-2.018 8.675 1.032 2.157 1.295 2.579 1.893 3.039.874.673.93.532.756-1.914-.496-7.004 2.282-10.651 7.164-9.404.868.222.805.433-.278.922-1.678.756-2.246 1.787-1.832 3.325.359 1.336 2.839 3.653 4.413 4.124.3.09.783.313 1.074.496 1.692 1.067 4.006-.025 4.006-1.89 0-1.201.312-1.515 1.502-1.515.519 0 1.309-.105 1.756-.235 3.381-.978 4.591-.755 4.694.864.082 1.281.022 1.266 2.397.585 3.228-.927 5.144-1.757 10.334-4.478 1.206-.633 2.41-1.211 2.674-1.286s.899-.325 1.411-.555c2.444-1.102 3.908-1.395 8.057-1.613 2.257-.119 4.317-.33 4.577-.47s.927-.254 1.479-.255 1.997-.166 3.212-.367a130.23 130.23 0 0 1 3.8-.568c.874-.111 2.078-.359 2.674-.551a15.86 15.86 0 0 1 2.247-.507c.64-.088 1.425-.288 1.745-.445s1.037-.356 1.594-.442 1.314-.311 1.683-.502 1.379-.492 2.243-.67c4.381-.9 7.016-2.509 9.32-5.69 1.109-1.531 1.252-4.878.249-5.813-.721-.672-5.879-.925-11.485-.564m1.613 2.626c.328.125.597.336.597.468 0 .315-2.455 1.398-3.169 1.398-.447 0-.553.123-.556.64-.002.352-.101.794-.22.982-.228.36-.21.385-.584-.81-.06-.193.097-.479.349-.637s.459-.4.459-.539c0-.398 1.036-1.268 1.772-1.488l.712-.221c.024-.011.312.083.64.207m-61.38.199c-.256.053-.672.24-.924.416a2.05 2.05 0 0 1-1 .321c-.297 0-.771.246-1.052.545a3.18 3.18 0 0 1-1.21.746l-.698.2.733.082c.806.089 3.437-.692 4.017-1.193.202-.175.654-.386 1.006-.469 1.185-.282.354-.898-.872-.648m39.748 3.902c.461.177.478.873.03 1.245-.726.602-3.051.881-4.604.553-1.667-.352-3.163-.211-4.409.417-1.232.62-3.479.463-2.476-.173 1.019-.647 2.957-1.486 3.455-1.495.32-.007.895-.156 1.279-.331.718-.329 5.99-.498 6.725-.216m45.019.813l-.581.243.698.576c.383.317 1.011.742 1.395.944s1.19.824 1.792 1.383c1.191 1.105 1.457 1.208 1.671.648.749-1.951-2.838-4.686-4.975-3.794m-61.589 4.486c2.428 1.074 2.253 2.234-.336 2.234-1.962 0-3.236-.901-2.703-1.912.559-1.061 1.212-1.13 3.039-.322m-6.236.482c.173.452-.197.658-.825.458-.489-.155-.492-.171-.07-.48.556-.406.732-.402.895.022m2.197 2.548c1.76.926 3.845 4.066 3.039 4.577-.54.342-1.201.205-2.411-.502-1.734-1.012-3.423-1.848-3.736-1.848-.486 0-.857-.667-.705-1.27.283-1.129 2.452-1.674 3.813-.957m42.209.936c-.537.168-1.142.471-1.344.673-.407.407-.417.409-5.353 1.101-1.918.269-3.824.63-4.235.802s-1.196.38-1.744.464c-1.07.163-2.801 1.023-2.802 1.392-.001.211.452.529 1.979 1.393.593.336.866 1.127.465 1.35-.206.114-3.532-.54-5.514-1.085-2.024-.555-2.406-.506-2.869.369-.218.413-.726 1.093-1.129 1.512l-.732.762h-2.698c-2.772 0-3.303.232-2.462 1.073.419.419-.42 1.64-1.72 2.503-2.626 1.743-5.618 2.415-8.632 1.938-3.121-.495-3.242 2.095-.337 7.238.812 1.438 1.077 2.957.637 3.655l-.764 1.211c-.635 1.007-1.733 1.409-4.122 1.513-1.481.064-2.145.193-2.461.478-.237.215-.551.391-.698.391-.366 0-1.037 1.296-1.322 2.554-.219.964-.302 1.054-1.096 1.183-1.699.276-2.023.983-1.274 2.775 1.233 2.947 2.01 3.565 3.919 3.12 1.084-.253 1.755-.146 3.143.502.664.31 1.259.564 1.322.564.452 0 2.394 2.192 2.879 3.248.562 1.227.875 9.25.39 10.034-.261.423-1.639.215-2.098-.317-2.582-2.991-2.775-6.278-.427-7.259.949-.397.908-.578-.575-2.477-2.003-2.568-3.347-2.439-5.794.555-.762.933-1.555 1.837-1.761 2.008-.591.491-.463 1.294.265 1.659 1.497.749 4.363 3.384 4.73 4.347.335.884.268 1.076-.732 2.086l-.944.953 1.232.409c2.328.773 4.601 3.67 5.431 6.922 1.048 4.101 2.206 4.968 4.325 3.239.587-.48 1.37-1.095 1.74-1.366l.671-.494-1.163-1.263c-.639-.695-1.509-1.511-1.933-1.814s-.923-.845-1.109-1.204a2.69 2.69 0 0 0-.973-.984c-.825-.43-1.59-1.26-1.891-2.053-.312-.824-.075-.959 1.603-.908 1.869.056 1.99-.143 1.659-2.723-.481-3.749-.455-3.843 1.398-5.031 1.184-.758 1.355-.309.955 2.509-.586 4.124-.59 4.393-.074 5.214.796 1.267 1.952.767 4.558-1.971 1.606-1.687 2.498-1.576 3.947.492.256.365.883 1.2 1.395 1.856 2.165 2.777 2.432 4.593.774 5.279-.903.375-3.192.124-4.372-.478-2.898-1.478-1.98.37 1.637 3.296 3.129 2.532 3.955 3.89 4.12 6.77.211 3.706 1.684 5.978 3.642 5.615 2.251-.417 2.223-.431 3.163 1.525.166.346.866.356 1.219.019.101-.097.238-.585.306-1.085.253-1.879.293-1.957.999-1.957 2.28 0 5.838 3.335 5.838 5.473 0 .212.156.663.347 1.003s.45.905.576 1.256c.366 1.025 1.638.934 1.627-.116-.004-.416-.161-.959-.348-1.207s-.342-.593-.342-.765-.418-1.169-.93-2.212c-1.602-3.269-1.189-3.42 1.633-.599 4.33 4.33 5.791 7.296 4.501 9.136-.52.741-3.084 1.981-4.121 1.993-.404.004-.974.141-1.267.304l-.533.296.648.335c.356.185 1.224.873 1.928 1.529 2.378 2.216 2.623 2.408 3.814 2.981.653.315 1.994.78 2.981 1.034 2.509.646 5.729 3.304 5.761 4.755.002.107.204.45.448.76 1.117 1.42.818 3.917-.533 4.456-.996.397-3.853.031-4.455-.571-.169-.168-.356-.306-.416-.306s-.774-.398-1.586-.885a36.85 36.85 0 0 0-2.757-1.481l-2.351-1.092c-1.946-.901-3.454-.499-2.155.574.686.567 3.739 2.419 3.988 2.419.137 0 .91.348 3.676 1.657.778.367 1.486.668 1.575.668s1.046.419 2.128.93 2.079.931 2.217.931.636.206 1.109.459 1.593.789 2.488 1.193c2.678 1.208 5.237 2.477 7.209 3.575l2.209 1.192c1.899.845 5.618 3.836 8.415 6.766l3.526 3.646c2.066 2.11 2.059 2.223-.162 2.699-4.053.87-10.356-1.807-7.957-3.378 1.063-.697-.562-1.627-3.262-1.866-2.182-.193-2.531.068-2.03 1.518 1.09 3.156 4.75 4.8 11.936 5.359 4.381.342 4.757.404 5.339.879l.489.4-.823 1.273c-.924 1.431-.928 1.623-.046 2.053.746.364.786.639.143.983-1.05.562-.513 1.412 1.58 2.501 1.85.963 1.937.984 2.604.64 1.797-.929 3.594-.099 5.244 2.423 1.928 2.947 3.376 3.232 5.588 1.098 2.689-2.594 2.93-2.784 3.19-2.523.189.188.154.297-.13.406-.213.082-.388.263-.388.402s-.278.655-.619 1.147c-1.167 1.684-.178 1.514 3.41-.585l1.279-.749h3.605c4.022 0 7.15.752 10.585 2.543.382.199.864.362 1.072.363s.503.152.656.335.61.405 1.017.492 1.001.295 1.321.462c1.797.94 3.088 1.395 4.648 1.637 2.209.344 4.599.953 5.352 1.364 2.394 1.305 9.179.642 9.702-.949.101-.309-2.129-1.478-2.829-1.482-.263-.002-1.141-.211-1.952-.465s-1.709-.462-1.996-.462c-.685 0-4.45-1.215-5.629-1.817-.999-.509-1.525-1.342-1.327-2.1.12-.459.055-.47-1.956-.34-2.228.144-5.895-.399-6.571-.974-.192-.163-.611-.372-.931-.466-1.926-.564-6.335-4.289-8.429-7.123-.273-.368-.704-.669-.958-.669-.669 0-6.77-1.939-7.822-2.485-.32-.167-.709-.303-.865-.304-.275-.001-1.917-.745-2.623-1.188-.192-.12-.715-.376-1.163-.568s-.971-.452-1.163-.577-.587-.331-.878-.456-.657-.34-.814-.475-.808-.581-1.448-.992c-4.046-2.592-9.295-8.725-8.525-9.959.587-.939.378-1.285-2.718-4.507-2.76-2.873-4.09-4.478-5.492-6.628l-1.517-2.326-.79-1.197c-.309-.466-.632-1.068-.717-1.337s-.246-.489-.357-.489-.272-.224-.359-.498c-.306-.966-2.456-4.011-3.114-4.411-.367-.223-1.21-1.067-1.875-1.876-1.966-2.394-2.338-2.544-2.764-1.122-.356 1.189-.679 1.184-.87-.013-.267-1.67-3.685-5.336-4.975-5.336-1.833 0-1.419-2.137.676-3.494 1.403-.909 1.451-1.211.433-2.715-.473-.7-.901-1.768-1.147-2.861-.566-2.517-1.045-4.369-1.474-5.697l-.816-2.675-.892-3.023c-.248-.832-.513-2.099-.588-2.816s-.283-1.66-.46-2.093-.394-1.312-.482-1.952-.251-1.476-.362-1.86-.319-1.143-.46-1.686c-.397-1.528-1.639-1.146-2.931.901-.313.496-.724.901-.915.901s-.346.175-.346.388-.058.329-.13.257c-.133-.133.221-2.369.629-3.969.267-1.053 1.028-1.522 1.797-1.11.456.244.539.163 1.076-1.052.898-2.031.79-2.436-.776-2.903-.966-.289-1.002-.331-.846-1.014.942-4.126.779-8-.361-8.592-.316-.164-.557-.396-.535-.515 1.051-5.729.648-14.258-.741-15.68l-.9-.921.26-1.34.506-2.502c.136-.64.336-2.52.445-4.178.538-8.151-.991-11.435-4.773-10.253m155.069 7.914c.407.92.418 1.324.184 6.887-.411 9.767.063 62.285.575 63.816.7 2.089 2.364 3.355 5.042 3.835 3.49.626 4.41 1.162 4.41 2.571 0 1.557-.265 1.606-7.806 1.452-4.788-.097-7.231-.048-9.287.19-3.411.394-6.971.424-7.333.061-1.213-1.214-.327-2.702 2.405-4.039 1.381-.676 1.782-1.009 2.365-1.959l.702-1.145v-28.39-28.39l-.649-1.366c-.782-1.644-1.711-2.904-2.361-3.201-4.94-2.26-5.751-3.893-2.657-5.351 1.891-.89 2.47-1.122 3.4-1.359.543-.139.988-.346.988-.461s.196-.27.435-.346c.432-.137 2.318-1.163 3.951-2.148.466-.282 1.108-.622 1.428-.756s.788-.365 1.039-.511c1.517-.882 2.601-.673 3.169.61M80.698 66.799c0 .514-.216 1.855-.481 2.98s-.447 2.439-.407 2.921l.074.875.684-.9c.465-.612.74-1.312.858-2.184.155-1.136.965-2.364 1.324-2.005.143.144-.645 4.358-.865 4.628-.117.142-.329.695-.471 1.23-.163.608-.649 1.372-1.301 2.042l-1.041 1.071-.704-.52c-.744-.55-1.392-2.204-1.391-3.549.003-2.624 1.27-7.047 2.294-8.009l.587-.551.42.519c.249.307.42.898.42 1.452m-68.975.73c-.269.701.002 1.196.608 1.11 1.1-.157 1.232-1.264.166-1.387-.408-.047-.688.053-.774.277m150.471.964c1.796.45 36.087.378 41.294-.087 5.484-.489 5.73-.258 4.675 4.385-.13.575-.3 2.878-.378 5.116-.17 4.928-.188 5.027-.986 5.426-1.317.66-2.357-.001-3.42-2.17-.344-.704-.723-1.436-.842-1.628a12.48 12.48 0 0 1-.492-.93c-.391-.82-2.262-3.024-2.568-3.024-.14 0-.42-.148-.621-.33-1.121-1.007-3.966-1.342-12.461-1.466-9.042-.133-9.527-.08-10.227 1.112-.655 1.115-.875 25.055-.244 26.564l.368.88 5.633-.09c11.976-.192 12.812-.54 13.326-5.552.213-2.078.832-2.826 2.32-2.803 1.744.026 2.375.796 1.994 2.431-.482 2.065-.957 9.097-.962 14.254-.006 5.879-.046 6.015-1.804 6.117l-1.213.07-.548-1.239c-.302-.682-.621-1.629-.71-2.104-.853-4.546-2.94-5.665-11.229-6.023-6.688-.288-6.847-.27-7.235.804-.456 1.26-.394 23.185.072 25.631.497 2.609 1.903 3.593 5.808 4.068 1.151.14 2.407.352 2.791.47l1.392.415c.779.224 1.213 1.226.962 2.224-.206.823-2.4 1.643-3.866 1.446-4.603-.62-16.62-.838-19.767-.36-3.652.555-3.645.555-4.393-.037-1.415-1.118-.557-2.999 1.51-3.31 2.114-.317 3.542-1.577 4.78-4.218l.545-1.163v-27.674-27.675l-.538-1.051c-.919-1.796-2.368-3.146-4.927-4.592-4.067-2.296-2.678-5.049 1.961-3.887M29.363 72.736c-.153.397.512.985 1.114.985.214 0 .743.24 1.177.534s.997.619 1.253.721c.597.24-.301.651-1.265.579-1.999-.148-2.198.435-.451 1.32 1.298.658 1.601.643 3.602-.171 2.518-1.025 2.599-3.341.135-3.88-2.006-.439-5.41-.493-5.565-.088m-8.227 3.079c-.776.453.361 2.325 1.411 2.325 1.213 0 2.503-1.692 1.725-2.261-.471-.344-2.583-.387-3.136-.064m35.444.642c.124.647-.166 1.683-.47 1.681-.672-.004-1.48-1.077-1.255-1.667.394-1.038 1.528-1.047 1.725-.014m-5.969.629c.125.326 3.468 2.681 3.805 2.681.463 0 .711 1.231.332 1.65-.362.399-.348.471.224 1.15 1.57 1.866.16 1.961-2.458.165-2.225-1.525-2.281-1.592-2.287-2.718a10.85 10.85 0 0 0-.218-1.978c-.117-.504-.161-1.002-.097-1.105.185-.299.556-.217.699.155m-24.225 1.767c-.203.329-.086.421.724.569.765.141 1.404-.167 1.162-.559-.204-.33-1.684-.338-1.886-.01m-2.142 1.552c-.349.119-.384.672-.056.875.271.168 1.161-.07 1.161-.309 0-.266-.793-.672-1.105-.566m27.349 4.159c3.125 1.392 4.243 1.996 4.154 2.248-.147.413-1.534.258-2.598-.291-.507-.261-1.051-.474-1.21-.474s-.372-.146-.474-.323-.788-.447-1.523-.598c-.876-.18-1.337-.39-1.337-.608 0-.467 1.9-.438 2.988.046m-3.371 1.284c1.071.583 3.753 2.339 4.569 2.991 1.535 1.228 1.838 1.556 1.985 2.149.186.753-.16.837-1.203.293-.366-.192-.867-.349-1.113-.349s-.619-.158-.83-.349-.899-.446-1.53-.569c-1.694-.328-3.379-1.238-4.176-2.255-2.192-2.798-1.06-3.739 2.298-1.911m-27.028.367c-.187.333-.025.51.956 1.047 1.84 1.006 3.183.756 2.527-.47-.442-.825-3.098-1.265-3.483-.577m20.767 1.434c.07.113.401.275.735.359s.884.34 1.223.571a99.56 99.56 0 0 0 1.662 1.089c1.401.897 3.1 2.578 2.914 2.88-.35.566-2.991.281-3.672-.397-3.023-3.011-3.657-3.71-3.659-4.031-.002-.606.522-.916.797-.471m-28.449 2.074c-.604 1.129.273 2.835 1.458 2.835.707 0 .368-1.746-.51-2.624-.677-.677-.696-.681-.948-.211m7.535.277c-.407.449-.406.483.019.988.242.288.464.563.492.611.548.935 2.744.2 2.395-.801-.4-1.149-2.153-1.63-2.906-.798m21.023 1.484c.146.176.586.384.977.463 2.948.589 3.85 5.439 1.2 6.446-.748.284-1.705-.292-2.968-1.788-.512-.606-1.435-1.634-2.051-2.284-1.999-2.107-1.9-1.966-1.503-2.119.383-.147 2.075.649 2.52 1.185.36.434 1.615.444 1.615.014 0-.177-.157-.451-.348-.61s-.349-.486-.349-.726-.105-.437-.233-.437-.232-.105-.232-.233c0-.348 1.066-.28 1.372.089m-21.023 2.167c.383.207.812.533.953.724s.376.273.523.182c.424-.262.312-.604-.197-.604-.259 0-.466-.155-.466-.348 0-.241-.234-.346-.755-.34l-.756.009.698.377m29.984 2.871c.535.545.621.756.4.977s-.404.132-.848-.411c-1.034-1.266-.679-1.714.448-.566m23.957 1.404c.326.65.593 1.414.593 1.698 0 .69.424 1.074 1.185 1.074.824 0 .908.289.908 3.107 0 2.133.05 2.413.497 2.796.876.75.356 3.981-.734 4.565-.641.343-1.349-.081-1.754-1.048-.178-.427-.635-1.117-1.016-1.534-1.651-1.807-2.377-6.941-1.402-9.912.792-2.414.869-2.447 1.723-.746m-6.383.33c0 .575-.105 1.046-.233 1.046-.255 0-.316-1.141-.091-1.725.234-.61.324-.422.324.679m13.488.349c0 .639-.105 1.162-.233 1.162s-.232-.523-.232-1.162.105-1.163.232-1.163.233.523.233 1.163m2.073.581c-.015 1.339-.274 2.209-.533 1.79-.218-.353-.232-2.972-.018-3.318.291-.47.565.29.551 1.528m-67.82-.174c.072.607.295 1.418.496 1.802s.365.913.366 1.176a1.85 1.85 0 0 0 .343.931c.385.509.49 2.073.123 1.846-.127-.079-.232-.34-.232-.581s-.186-.575-.413-.743-.748-.831-1.156-1.475-1.059-1.407-1.447-1.693l-.705-.521.003.53c.004.801.81 3.175 1.521 4.483 1.113 2.047 1.93 3.685 2.553 5.117l1.056 2.351c.246.525.448 1.085.448 1.243s.147.565.327.905.608 1.245.952 2.012c1.879 4.194 4.125 7.603 5.175 7.855.648.155.645.093-.071-1.343-.74-1.482-1.656-3.755-1.87-4.636a6.84 6.84 0 0 0-.477-1.279c-.172-.328-.313-.72-.313-.872-.002-.32-1.18-3.281-1.51-3.794-.959-1.492-1.039-1.876-.45-2.144.876-.399.02-4.512-1.53-7.354a61.4 61.4 0 0 1-.878-1.781c-1.586-3.316-2.566-4.18-2.311-2.035m263.118-.531c5.129 1.094 7.226 4.707 7.092 12.217l-.17 12.044-.131 9.834.532 1.064c.711 1.425 1.136 1.553 4.608 1.385 3.124-.151 3.338-.103 3.691.827.416 1.094-.068 2.16-1.384 3.046-1.041.702-4.571 2.73-4.75 2.73-.077 0-.632.227-1.232.504-2.633 1.216-6.172.534-7.321-1.411-1.043-1.767-2.823-2.389-4.056-1.419-.326.256-.767.465-.981.465s-.593.156-.841.346-.87.462-1.381.605-.983.344-1.047.446c-.768 1.23-8.871 2.296-12.132 1.597-3.372-.724-6.915-4.089-7.298-6.934-.078-.583-.246-1.399-.374-1.813-.863-2.816 1.289-7.008 4.853-9.452 1.28-.878 5.41-2.929 5.926-2.942.167-.004.723-.21 1.234-.457s1.107-.453 1.323-.457 1.21-.258 2.209-.562a45.1 45.1 0 0 1 3.096-.823l2.791-.584c1.797-.376 3.397-1.159 3.772-1.846 1.195-2.186.897-8.792-.479-10.615-1.71-2.268-2.832-2.951-5.212-3.173-2.763-.258-4.604.726-5.679 3.039-2.096 4.506-6.165 6.753-9.378 5.179-2.305-1.129-2.483-4.159-.357-6.088 1.131-1.028 2.474-2.003 3.527-2.563.61-.325 1.28-.744 1.488-.933s.51-.342.672-.342.573-.15.912-.333c1.18-.637 3.351-1.527 3.727-1.529.209 0 .684-.16 1.057-.355s1.42-.47 2.326-.612l2.81-.441c1.55-.244 4.496-.083 6.557.356M325 98.13c7.295.732 8.828 1.194 9.065 2.734.074.484.28 1.403.456 2.043s.391 1.772.477 2.517.304 1.709.486 2.143c.652 1.562.463 2.334-.718 2.924-1.381.69-2.235.317-3.633-1.584-.847-1.153-2.699-3.092-3.738-3.914-3.729-2.951-12.062-2.572-13.692.623-1.454 2.85.046 5.993 3.739 7.837l1.86.953c1.058.601 2.835 1.381 3.464 1.519.397.087.722.253.722.368s.288.28.64.365c.561.136 2.293.911 3.314 1.482.192.108.986.525 1.765.927 6.465 3.341 9.195 9.535 6.919 15.7-.745 2.018-4.048 5.931-5.007 5.931-.148 0-.46.173-.693.384-.554.501-2.481 1.196-4.379 1.58l-2.73.585c-2.2.503-13.169-.34-14.671-1.128-.215-.112-.861-.281-1.437-.375-2.93-.479-3.452-1.405-3.541-6.281-.106-5.854 1.575-7.501 3.943-3.861 2.072 3.187 5.62 5.774 8.647 6.306 5.708 1.003 8.686.66 10.817-1.245 2.793-2.497 1.632-7.057-2.345-9.208-.491-.266-1.05-.587-1.242-.713s-.61-.335-.93-.463-.738-.327-.93-.444c-.347-.212-2.591-1.253-3.256-1.511-.192-.074-.506-.233-.698-.353s-1.133-.6-2.093-1.068-2.162-1.098-2.674-1.401a27.21 27.21 0 0 0-1.279-.719c-3.436-1.671-6.278-6.229-6.279-10.071-.001-1.257.947-4.942 1.432-5.569.235-.305.429-.671.43-.814.002-.47 2.328-2.803 3.558-3.57 2.023-1.261 3.623-1.912 5.394-2.195 4.215-.675 5.71-.748 8.837-.434m-269.53 2.124c.156.713 1.815 3.966 2.888 5.664.747 1.181 1.315.419.655-.877-2.764-5.431-2.355-6.477 1.131-2.89 4.761 4.9 5.542 6.198 4.511 7.495-.411.518-.702 1.158-.702 1.549 0 .661-.506.93-.813.433-.27-.437-1.42-.245-1.957.327-.907.966-1.316.908-2.407-.339-.891-1.019-1.379-1.975-2.721-5.337-.647-1.619-1.404-4.554-1.404-5.441 0-1.585.518-1.955.819-.584m-6.734 2.164c.21.836.03 1.652-.364 1.652-.192 0-.384-.246-.426-.547-.101-.714.142-1.663.426-1.663.123 0 .287.251.364.558m5.527 2.231c.408.378.451 1.986.061 2.31-.753.625-2.179-1.647-1.526-2.432.283-.342 1.03-.279 1.465.122m-21.668 7.649c-.495.314.167 1.192.891 1.183.817-.011 1.845-.877 1.385-1.168-.423-.268-1.862-.277-2.276-.015m12.754 1.19c0 .128.096.233.213.233s.366.058.552.13.4-.034.477-.233c.106-.278-.022-.362-.552-.362-.379 0-.69.104-.69.232m6.221 5.975c-.449.117-.522.56-.193 1.18 2.631 4.969 1.198 5.859-4.982 3.091l-1.744-.777c-2.37-1.049-3.61-.712-3.425.932.065.579.209 1.118.319 1.198.408.297 1.478 2.044 1.478 2.414 0 .557 1.279 1.439 3.14 2.163 1.613.628 4.004 1.772 8.721 4.172 3.341 1.701 4.119 2.02 4.718 1.935.624-.089.819-.98.339-1.546-.181-.213-.474-.754-.651-1.202s-1.066-1.553-1.976-2.457c-1.921-1.906-2.372-2.678-2.78-4.752-.968-4.921-1.615-6.652-2.426-6.485a16.41 16.41 0 0 0-.538.134m-30.252 2.32c-.59.59 2.729 8.5 5.546 13.217a34.93 34.93 0 0 1 .853 1.512c.164.319.692 1.157 1.174 1.86s.876 1.349.876 1.435.474.871 1.052 1.745l1.337 2.027a21.42 21.42 0 0 0 .751 1.048c.256.335.57.787.698 1.005.233.397 2.436 3.632 4.911 7.214a82.98 82.98 0 0 0 1.987 2.769c.363.466.66 1.054.66 1.306s.187.708.416 1.013.542.816.696 1.136.411.788.572 1.04l1.165 1.819c.479.748.872 1.439.872 1.535s.471.782 1.046 1.523 1.047 1.438 1.047 1.548c0 .351 4.405 5.721 6.066 7.395.895.902 3.343 2.957 3.846 3.229.304.164.553.392.553.507s.183.27.407.345c.517.172 2.903 2.394 4.47 4.161 1.937 2.186 5.161 4.572 6.179 4.572.158 0 .745.207 1.302.46 1.579.717 3.69.605 3.687-.194-.006-1.452-4.663-5.502-6.852-5.957l-1.155-.24c-1.338-.276-5.98-5.642-5.781-6.682.106-.557.042-.603-1.057-.754-1.802-.248-3.317-1.586-4.646-4.107-1.59-3.015-2.06-3.552-3.311-3.777-2.679-.481-4.878-2.82-5.713-6.074-.419-1.635-1.013-3.426-1.273-3.838-.121-.191-.387-.715-.591-1.162-.712-1.561-2.65-3.692-4.005-4.406-.318-.167-.888-.989-1.355-1.953-1.342-2.772-1.482-3.001-2.859-4.688-2.038-2.498-4.942-6.189-5.562-7.071-.653-.928-2.583-4.754-2.583-5.121 0-.138-.209-.642-.465-1.119s-.465-1.047-.465-1.265-.087-.45-.194-.516-.601-.936-1.099-1.933c-.756-1.516-2.785-4.719-2.989-4.719-.032 0-.129.07-.214.155m252.869.687c-.959.174-2.139.474-2.621.667s-1.1.351-1.371.351c-.716 0-4.374 1.718-5.498 2.582-.294.226-.975.963-1.511 1.638l-.977 1.227.001 2.451c0 3.53.91 4.745 4.224 5.646 1.895.515 5.962.181 7.868-.646.384-.166.958-.378 1.275-.47 1.771-.514 2.14-1.181 2.37-4.288.581-7.836.488-8.792-.905-9.322-.647-.246-.567-.25-2.855.164m-210.234 3.344c0 .128-.156.233-.348.233s-.349-.105-.349-.233.157-.233.349-.233.348.105.348.233m27.289 2.984c.677.707 1.048 2.477.76 3.624-.171.684-.788.805-.985.194-.072-.224-.33-.897-.574-1.496-.933-2.295-.469-3.645.799-2.322m-50.188 1.654c-.224.363.071.711.605.711.319 0 .443-.129.39-.405-.089-.463-.768-.672-.995-.306m.109 6.764c-.374.248.941 1.601 1.57 1.615.543.012.293-.835-.398-1.345-.794-.587-.721-.57-1.172-.27m28.604.567c0 .638.585 1.054 1.483 1.054.834 0 .974-.411.362-1.064-.74-.787-1.845-.781-1.845.01m-12.965 1.084c-.406.413-.362.837.115 1.104.645.361.157.574-.661.288-1.117-.389-1.372-.326-1.372.338 0 1.044-.411 1.53-1.229 1.451-1.376-.133-.672 1.624.995 2.486.814.421 1.057 1.43.437 1.817-.704.44-.55.65 1.889 2.57 1.277 1.006 2.264 1.921 2.194 2.035-.199.322-1.534.243-1.942-.115-.658-.575-1.399-.685-1.573-.231-.087.225-.043.447.097.493s.511.323.824.614c.524.485 2.207 1.366 5.866 3.069.767.357 1.761.925 2.209 1.262.771.581 3.21 1.986 5.635 3.249 1.66.864 2.065.327.71-.941-1.247-1.166-1.491-1.634-1.314-2.52.178-.894-.116-1.356-2.133-3.343-1.317-1.298-1.537-1.626-1.415-2.112.157-.625-.443-1.205-2.695-2.606-1.548-.963-1.413-1.496.378-1.496 1.116 0 1.127-.174.076-1.194-1.197-1.162-1.068-1.995.382-2.471.967-.318 2.237-1.135 2.237-1.44 0-.104-.916-.461-2.035-.793l-3.43-1.062c-1.907-.624-3.87-.833-4.245-.452m38.541 3.558c-.439.439-.739-.207-.421-.905l.294-.644.176.661c.101.375.079.759-.049.888m-48.249-.565c-.189.305.062.698.447.698.167 0 .582.219.923.488.995.782 1.583.37.666-.467-.793-.725-1.811-1.084-2.036-.719m56.316 9.488c.264 1.05-.45 1.362-1.167.51-.575-.683-.799-1.596-.473-1.923.245-.244 1.495.833 1.64 1.413m6.504 9.047c1.268 1.483 1.446 1.757 2.285 3.529 1.395 2.947.216 3.101-2 .262-1.382-1.77-2.059-3.142-2.059-4.169 0-1.31.404-1.224 1.774.378m-46.946.002c.289.056.708.054.93-.005s-.014-.103-.526-.101-.693.05-.404.106m1.451.766c0 .128.32.232.711.232.415 0 .652-.097.568-.232-.079-.128-.4-.233-.712-.233s-.567.105-.567.233m10.607-.042c-.065.105.073.355.307.555s.463.462.511.581c.238.597 4.621 1.584 4.621 1.041 0-.342-4.292-2.368-5.015-2.368-.168 0-.359.086-.424.191m-6.654 1.061c0 .049.262.139.581.201s.582.021.582-.09-.262-.2-.582-.2-.581.04-.581.089m1.447.88c.12.36.851.421.937.078.032-.128-.189-.268-.491-.311-.377-.053-.517.02-.446.233m-5.784 1.571c-1.65.721.311 3.21 3.432 4.355.945.346 1.944.774 2.22.949 1.078.688 6.839.867 8.803.275 1.8-.543 1.115-2.308-1.037-2.675-.882-.151-3.177-.997-4.318-1.591-.381-.199-.81-.362-.954-.363s-.928-.216-1.744-.478c-1.651-.53-5.602-.821-6.402-.472m16.359 1.111c-.637.165-.464.367 2.048 2.388 3.367 2.708 8.511 4.159 8.308 2.343-.078-.694-.317-.856-1.544-1.044-.523-.08-1.473-.447-2.113-.814-1.731-.995-5.993-3.067-6.188-3.009a28.28 28.28 0 0 1-.511.136m6.146.031c-.456.312-.147.675.73.857.414.086 1.381.495 2.149.909 2.232 1.203 7.061 2.143 7.99 1.554.407-.258-1.766-1.297-3.148-1.506-.534-.081-1.686-.522-2.558-.979-1.661-.871-4.452-1.323-5.163-.835m37.575 4.62c-.593.154-.389.868.275.962.739.105 1.124-.297.734-.766-.163-.197-.363-.346-.443-.331s-.335.076-.566.135m-35.938 2.886c.161 1.134 4.818 2.605 4.707 1.486-.034-.337-1.847-1.253-2.988-1.508-.539-.121-1.164-.291-1.389-.377-.33-.127-.393-.05-.33.399m41.183 2.002c-.458.165-.338.531.175.531.256 0 .465-.099.465-.219 0-.298-.288-.438-.64-.312m-42.036 3.091c-.609.987 4.622 3.807 6.287 3.389.73-.183.737-.55.016-.824-.307-.117-.625-.321-.707-.453-.182-.295-1.834-1.066-3.85-1.797-1.774-.642-1.566-.605-1.746-.315m7.711.572c-.177.462-.07.684.268.555.119-.045.144-.284.055-.531-.152-.425-.168-.427-.323-.024m-11.893 1.14c-.524.383.088.844 1.12.844.819 0 .996-.655.253-.937-.767-.292-.855-.286-1.373.093m-.875 5.888c-.613.161-.498.77.146.77.721 0 1.248-.582.713-.787-.205-.078-.391-.131-.412-.116s-.223.075-.447.133m10.761.065c-.273.172-.177.288.465.559.719.303.832.301 1.011-.017.348-.617-.731-1.013-1.476-.542m5.505 1.723c-.485.384-.451.413 1.193 1.038l1.229.467.229-.602c.372-.979-1.675-1.677-2.651-.903m14.177 1.5c-.75.83-.37 1.137 1.227.991.539-.049 1.632-.876 1.64-1.241.009-.396-2.479-.178-2.867.25m-29.649 5.3c.047.239.371.572.721.74s.637.392.637.499.235.255.523.329 1.046.48 1.686.902 1.791 1.068 2.558 1.436 1.605.849 1.861 1.069.778.476 1.161.567.843.288 1.021.438.694.378 1.146.507c1.229.351 1.228.811-.002.811-.726 0-1.127-.132-1.412-.465-.228-.265-.686-.465-1.07-.465-.369 0-.796-.15-.948-.334s-.61-.406-1.017-.495a3.82 3.82 0 0 1-1.295-.596c-.305-.24-.737-.435-.959-.435a1.03 1.03 0 0 1-.688-.34c-.155-.187-.508-.409-.784-.493s-.664-.294-.862-.467c-1.129-.987-3.71-1.89-3.71-1.298 0 .2 2.146 1.668 2.438 1.668.089 0 .429.209.754.465s.776.465 1 .465.466.146.534.325.499.449.955.6.831.369.831.485.47.33 1.046.474 1.047.348 1.047.451.392.31.872.461a17.77 17.77 0 0 1 1.817.715c.52.243 1.057.442 1.193.442s.371.151.524.334.61.407 1.017.496 1.104.358 1.55.597.969.434 1.163.435.666.21 1.05.464.89.463 1.127.463.707.158 1.046.348c.662.371 1.852.811 4.155 1.54.795.251 1.508.557 1.584.681s.368.222.648.22 1.19.2 2.021.447c4.445 1.325 6.868 1.824 11.977 2.467 1.279.161 3.215.454 4.302.65 2.515.455 5.106.82 7.907 1.117 1.215.129 2.994.388 3.954.577s3.47.503 5.581.699c12.919 1.198 21.909 1.111 28.796-.28 1.831-.37-2.06-1.452-5.3-1.474-1.083-.007-3.961.103-6.396.246-4.88.285-7.765-.01-9.824-1.004-1.042-.504-2.674-.497-4.95.021-1.305.297-6.244.306-8.721.016l-5.18-.558c-1.825-.187-3.432-.411-3.572-.497s-1.419-.297-2.844-.469-3.428-.469-4.451-.661c-1.865-.351-2.864-.715-6.628-2.42-1.098-.498-2.482-1.019-4.111-1.549-.535-.173-1.215-.469-1.512-.658s-.904-.418-1.35-.511-1.022-.303-1.279-.465-.816-.368-1.239-.457c-.474-.098-.863-.363-1.01-.684-.175-.386-.383-.496-.791-.418-.522.1-1.937-.364-4.289-1.409l-1.744-.755c-.384-.16-1.801-.825-3.15-1.478s-2.528-1.187-2.621-1.187-.595-.269-1.117-.598-1.749-1.026-2.728-1.548-1.832-1.027-1.896-1.122c-.305-.454-2.839-.525-2.753-.077m8.952.031c-.26.42.438 1.337 1.017 1.337.979 0 .83-1.37-.159-1.466-.404-.04-.79.019-.858.129m-11.432 1.221c.079.128.295.233.479.233s.335-.105.335-.233-.215-.233-.478-.233-.415.105-.336.233m64.735 1.7c-2.051 1.058-4.443 3.411-4.344 4.275.106.927.88.965 2.153.106l1.031-.696.393.621c1.459 2.308 3.942.96 3.861-2.095-.079-3.004-.698-3.446-3.094-2.211m-4.967 1.091c-.079.128.072.232.335.232s.479-.104.479-.232-.151-.233-.335-.233-.4.105-.479.233m45.987.332c-3.825.753-3.386 3.103.524 2.81 2.272-.171 1.456-.185 6.977.125 7.388.414 10.232.257 10.925-.604.743-.924.689-.947-2.853-1.253-1.701-.147-3.323-.364-3.605-.484-1.554-.657-9.616-1.058-11.968-.594m-34.701.716c-.571.317-1.276.878-1.565 1.249l-.527.673.478.608c.68.864 1.44.561 3.537-1.412 1.607-1.513.234-2.311-1.923-1.118m79.179.574c-2.297.159-2.806.313-3.148.952-.463.865 3.777.894 8.129.057 4.725-.91 1.884-1.485-4.981-1.009m-20.814.615c0 .27.083.312.291.148.16-.126.447-.288.639-.359.199-.074.074-.137-.29-.148-.443-.012-.64.098-.64.359m-107.209.618c0 .341.932.866 1.538.866.235 0 .329-.178.28-.524-.088-.623-1.818-.948-1.818-.342m-5.524.79c.406.239.125.541-.504.541-.963 0-1.406-.217-1.254-.613.121-.316 1.173-.272 1.758.072m60.315.098c-.694.547-.754 1.434-.105 1.558.459.087 2.163-1.342 1.895-1.589-.492-.454-1.189-.441-1.79.031m-4.675.403c-1.154.548-2.012 1.462-1.711 1.823.871 1.05 3.361-.794 2.58-1.911-.117-.166-.395-.138-.869.088m-24.302.621c0 .375.213.431.795.208.566-.217.436-.557-.214-.557-.362 0-.581.132-.581.349m-17.901.805c-.287.181-.268.243.116.38.652.231 1.793.746 2.203.992.846.509 2.531 1.195 2.933 1.195.242 0 1.067.208 1.835.462 3.581 1.184 8.955 1.912 9.756 1.322.586-.432-1.749-1.6-3.942-1.973-4.051-.689-5.414-.961-6.047-1.207-.384-.149-1.325-.372-2.093-.496s-1.844-.377-2.392-.562c-1.145-.387-1.88-.422-2.369-.113m53.133.009c-.093.15-.064.378.064.506.155.155.289.141.401-.041.093-.15.064-.378-.063-.505-.155-.156-.289-.142-.402.04m-4.244.52c-.816.489-.884.667-.517 1.352.229.428.267.421.93-.17 1.184-1.054.87-1.95-.413-1.182m7.981-.313c-.07.114-.417.278-.769.365-1.113.275-2.728 2.451-1.82 2.451.958 0 3.155-1.713 3.155-2.461 0-.556-.319-.755-.566-.355m9.27 9.354c-.178.288.293.664.83.664s1.008-.376.83-.664c-.087-.142-.461-.259-.83-.259s-.742.117-.83.259" fill="#fbfbfb"/></svg>