<?xml version="1.0" standalone="no"?>
<!DOCTYPE svg PUBLIC "-//W3C//DTD SVG 20010904//EN"
 "http://www.w3.org/TR/2001/REC-SVG-20010904/DTD/svg10.dtd">
<svg version="1.0" xmlns="http://www.w3.org/2000/svg"
 width="427.000000pt" height="413.000000pt" viewBox="0 0 427.000000 413.000000"
 preserveAspectRatio="xMidYMid meet">

<rect width="100%" height="100%" fill="#DDD" />
<g transform="translate(0.000000,413.000000) scale(0.100000,-0.100000)"
fill="#000000" stroke="none">
<path d="M1921 4089 c-638 -67 -1230 -437 -1565 -979 -425 -687 -419 -1548 17
-2221 213 -330 508 -587 872 -760 222 -105 309 -120 355 -62 19 24 20 39 20
241 l0 214 -27 -6 c-16 -4 -86 -9 -158 -12 -150 -7 -227 7 -326 57 -93 46
-149 109 -207 230 -71 148 -118 207 -237 294 -22 16 -45 36 -52 45 -58 72 83
94 209 32 78 -38 142 -98 203 -191 56 -85 121 -145 195 -179 48 -23 68 -26
165 -27 90 0 122 4 177 23 65 23 67 24 73 65 11 62 42 135 81 189 39 55 52 46
-104 73 -540 92 -805 417 -805 985 0 128 3 169 21 235 27 100 80 207 140 288
l47 62 -17 65 c-33 127 -16 355 34 465 12 27 13 28 83 22 115 -10 257 -66 423
-166 l83 -50 79 19 c249 63 586 65 864 6 l108 -23 92 55 c158 96 338 162 441
162 49 0 52 -5 85 -134 25 -100 26 -262 2 -356 l-17 -65 47 -62 c134 -178 185
-388 158 -649 -42 -411 -211 -657 -541 -788 -82 -32 -252 -74 -336 -82 -35 -4
-63 -10 -63 -15 0 -4 11 -20 24 -36 39 -47 74 -125 90 -206 13 -61 16 -145 16
-416 0 -338 0 -340 23 -366 37 -43 86 -43 202 0 629 235 1115 772 1285 1419
53 205 64 292 64 526 0 174 -4 239 -22 340 -175 1022 -1061 1760 -2096 1749
-67 -1 -159 -6 -205 -10z"/>
<path d="M787 1133 c-19 -18 19 -48 43 -33 11 7 11 11 1 24 -14 17 -33 21 -44
9z"/>
<path d="M875 1060 c-12 -20 6 -50 31 -50 29 0 31 20 6 43 -21 20 -28 21 -37
7z"/>
<path d="M953 944 c-8 -22 9 -48 36 -52 16 -3 21 2 21 20 0 42 -44 66 -57 32z"/>
<path d="M1050 817 c0 -29 18 -47 46 -47 28 0 36 22 18 49 -21 30 -64 28 -64
-2z"/>
<path d="M1194 735 c-10 -24 16 -46 49 -43 36 4 44 19 22 42 -21 20 -64 21
-71 1z"/>
<path d="M1532 728 c-19 -19 -14 -37 12 -44 31 -7 68 12 64 34 -4 21 -58 28
-76 10z"/>
<path d="M1364 705 c-8 -19 13 -45 35 -45 28 0 53 24 45 43 -8 22 -72 24 -80
2z"/>
</g>
</svg>
