<svg id="svg" version="1.1" xmlns="http://www.w3.org/2000/svg" xmlns:xlink="http://www.w3.org/1999/xlink" width="400" height="419.66364812419147" viewBox="0, 0, 400,419.66364812419147"><g id="svgg"><path id="path0" d="M0.067 31.100 C 0.104 48.205,0.197 61.480,0.275 60.600 C 1.570 45.799,8.817 35.277,23.903 26.295 C 43.357 14.711,67.138 7.227,96.000 3.605 C 97.870 3.370,100.660 3.002,102.200 2.788 C 129.760 -1.052,168.561 -0.118,195.400 5.032 C 256.637 16.782,291.777 42.729,288.534 73.800 C 288.350 75.560,288.200 113.810,288.200 158.800 L 288.200 240.600 287.195 242.395 C 285.767 244.945,283.796 245.902,278.085 246.818 C 248.176 251.618,227.380 264.796,211.207 289.200 C 205.395 297.969,205.106 298.140,195.000 298.811 C 152.088 301.659,127.732 326.487,125.574 369.582 C 125.151 378.019,124.884 378.999,122.895 379.418 C 122.293 379.544,121.474 379.713,121.076 379.793 C 119.628 380.082,98.223 377.296,90.200 375.773 C 34.588 365.220,3.544 343.618,0.278 313.200 C 0.196 312.430,0.099 336.055,0.064 365.700 L 0.000 419.600 200.000 419.600 L 400.000 419.600 400.000 209.800 L 400.000 0.000 200.000 0.000 L 0.000 0.000 0.067 31.100 M136.400 27.440 C 107.299 28.264,88.949 31.576,65.800 40.183 C 51.236 45.598,46.195 52.029,49.030 61.578 C 50.350 66.020,57.924 69.200,80.400 74.746 C 113.693 82.961,154.587 84.277,186.200 78.150 C 196.075 76.237,205.150 74.149,211.200 72.399 C 212.850 71.921,215.460 71.188,217.000 70.769 C 232.717 66.490,239.565 60.998,239.893 52.406 C 240.183 44.804,238.035 43.211,218.928 36.863 C 197.469 29.733,169.242 26.510,136.400 27.440 M0.167 184.000 C 0.176 244.610,0.279 288.710,0.398 282.000 C 0.718 263.901,0.739 110.494,0.424 90.800 C 0.275 81.450,0.159 123.390,0.167 184.000 M70.400 161.078 C 52.562 162.986,42.455 174.367,45.237 189.415 C 46.791 197.825,51.920 202.832,64.500 208.220 C 73.043 211.879,74.571 213.146,74.571 216.565 C 74.571 224.210,62.463 223.673,47.498 215.366 C 45.691 214.363,45.632 214.669,45.674 224.802 C 45.720 236.090,45.224 235.056,51.400 236.745 C 71.669 242.288,91.999 237.205,97.921 225.115 C 104.541 211.597,98.347 199.291,81.256 192.005 C 71.367 187.789,69.198 186.225,69.201 183.314 C 69.210 177.014,81.436 176.152,93.471 181.604 C 96.634 183.037,96.400 183.724,96.400 173.002 L 96.400 163.737 94.300 163.224 C 90.329 162.254,88.987 162.018,84.002 161.410 C 79.395 160.848,73.823 160.712,70.400 161.078 M139.400 161.062 C 117.599 163.651,104.027 180.586,105.371 203.525 C 106.728 226.699,126.988 242.688,149.570 238.406 L 151.649 238.011 156.325 242.806 L 161.001 247.600 175.101 247.600 C 182.855 247.600,189.200 247.448,189.200 247.262 C 189.200 247.075,187.445 245.256,185.300 243.219 C 178.487 236.749,170.400 228.659,170.400 228.315 C 170.400 228.132,171.090 227.221,171.933 226.291 C 184.667 212.241,184.314 185.779,171.206 171.857 C 163.651 163.832,151.320 159.647,139.400 161.062 M192.000 199.800 L 192.000 237.600 216.155 237.600 L 240.309 237.600 240.537 235.900 C 240.861 233.482,240.876 225.885,240.563 222.706 L 240.298 220.011 227.649 219.906 L 215.000 219.800 214.793 191.000 C 214.680 175.160,214.545 162.155,214.493 162.100 C 214.442 162.045,209.360 162.000,203.200 162.000 L 192.000 162.000 192.000 199.800 M147.682 181.022 C 158.905 184.846,160.589 209.909,150.116 217.226 C 143.757 221.669,135.295 219.150,131.807 211.777 C 127.118 201.866,130.189 184.744,137.164 181.911 C 140.216 180.671,141.211 180.434,143.429 180.418 C 144.765 180.408,146.679 180.680,147.682 181.022 M300.800 260.605 C 318.390 264.352,330.690 271.863,347.302 289.000 C 365.657 307.936,371.908 333.121,365.526 362.423 C 365.424 362.891,366.307 363.043,370.200 363.230 C 379.264 363.664,382.580 365.543,392.609 375.926 C 404.432 388.167,400.916 408.955,385.800 416.180 C 379.368 419.255,388.561 419.000,284.000 419.000 C 180.696 419.000,187.966 419.173,179.800 416.520 C 165.891 412.001,150.787 398.704,143.999 385.000 C 127.844 352.386,151.047 313.969,188.000 312.146 C 192.698 311.914,193.860 312.076,198.103 313.557 C 207.303 316.768,211.521 314.189,217.894 301.455 C 233.522 270.233,267.471 253.505,300.800 260.605 " stroke="none" fill="#fafbfb" fill-rule="evenodd"></path><path id="path1" d="M125.000 0.843 C 115.647 1.485,104.568 2.430,102.200 2.787 C 100.880 2.986,98.180 3.345,96.200 3.586 C 53.231 8.810,16.269 24.982,5.585 43.232 C 0.580 51.781,0.193 54.624,0.415 81.200 C 0.662 110.881,0.652 264.518,0.400 292.200 C 0.180 316.454,0.322 318.246,3.040 325.466 C 12.374 350.265,47.974 369.497,98.800 377.199 C 106.505 378.366,120.222 379.964,121.076 379.793 C 125.156 378.977,125.096 379.113,125.574 369.582 C 127.732 326.487,152.088 301.659,195.000 298.811 C 205.106 298.140,205.395 297.969,211.207 289.200 C 227.380 264.796,248.176 251.618,278.085 246.818 C 283.796 245.902,285.767 244.945,287.195 242.395 L 288.200 240.600 288.200 158.800 C 288.200 113.810,288.350 75.560,288.534 73.800 C 290.617 53.845,277.115 36.059,249.200 21.985 C 218.452 6.483,167.986 -2.107,125.000 0.843 M170.200 28.002 C 191.593 29.345,208.490 32.848,227.328 39.844 C 238.734 44.081,240.156 45.503,239.893 52.406 C 239.565 60.998,232.717 66.490,217.000 70.769 C 215.460 71.188,212.850 71.921,211.200 72.399 C 205.150 74.149,196.075 76.237,186.200 78.150 C 146.643 85.816,90.461 81.236,56.222 67.553 C 49.938 65.042,48.400 62.979,48.400 57.063 C 48.400 48.198,53.264 44.456,74.226 37.193 C 98.075 28.929,132.480 25.635,170.200 28.002 M84.002 161.410 C 88.987 162.018,90.329 162.254,94.300 163.224 L 96.400 163.737 96.400 173.002 C 96.400 183.724,96.634 183.037,93.471 181.604 C 81.436 176.152,69.210 177.014,69.201 183.314 C 69.198 186.225,71.367 187.789,81.256 192.005 C 98.347 199.291,104.541 211.597,97.921 225.115 C 91.999 237.205,71.669 242.288,51.400 236.745 C 45.224 235.056,45.720 236.090,45.674 224.802 C 45.632 214.669,45.691 214.363,47.498 215.366 C 62.463 223.673,74.571 224.210,74.571 216.565 C 74.571 213.146,73.043 211.879,64.500 208.220 C 50.038 202.025,44.775 195.720,44.807 184.627 C 44.855 167.882,60.602 158.555,84.002 161.410 M150.600 161.390 C 169.567 164.483,181.183 178.935,181.197 199.456 C 181.204 210.274,177.976 219.623,171.933 226.291 C 171.090 227.221,170.400 228.132,170.400 228.315 C 170.400 228.659,178.487 236.749,185.300 243.219 C 187.445 245.256,189.200 247.075,189.200 247.262 C 189.200 247.448,182.855 247.600,175.101 247.600 L 161.001 247.600 156.325 242.806 L 151.649 238.011 149.570 238.406 C 126.988 242.688,106.728 226.699,105.371 203.525 C 103.776 176.304,124.375 157.114,150.600 161.390 M214.493 162.100 C 214.545 162.155,214.680 175.160,214.793 191.000 L 215.000 219.800 227.649 219.906 L 240.298 220.011 240.563 222.706 C 240.876 225.885,240.861 233.482,240.537 235.900 L 240.309 237.600 216.155 237.600 L 192.000 237.600 192.000 199.800 L 192.000 162.000 203.200 162.000 C 209.360 162.000,214.442 162.045,214.493 162.100 M139.600 180.962 C 138.830 181.252,137.734 181.679,137.164 181.911 C 131.514 184.206,128.021 196.684,130.179 206.865 C 134.081 225.275,154.454 223.117,156.773 204.049 C 158.670 188.444,150.149 176.989,139.600 180.962 M277.800 259.458 C 251.403 262.388,229.904 277.460,217.894 301.455 C 211.521 314.189,207.303 316.768,198.103 313.557 C 193.860 312.076,192.698 311.914,188.000 312.146 C 157.483 313.652,134.839 340.788,139.389 370.400 C 142.836 392.836,163.695 413.901,186.800 418.280 C 192.790 419.415,375.905 419.396,380.200 418.259 C 399.517 413.149,406.279 390.079,392.609 375.926 C 382.580 365.543,379.264 363.664,370.200 363.230 C 366.307 363.043,365.424 362.891,365.526 362.423 C 371.321 335.814,367.150 314.206,352.548 295.200 C 348.347 289.732,338.705 280.049,333.000 275.568 C 317.807 263.634,296.415 257.391,277.800 259.458 " stroke="none" fill="#04abeb" fill-rule="evenodd"></path></g></svg>